<svg width="502" height="332" viewBox="0 0 502 332" fill="none" xmlns="http://www.w3.org/2000/svg">
<g clip-path="url(#clip0_36_2683)">
<path d="M85.5898 332C132.311 332 170.186 326.259 170.186 319.178C170.186 312.097 132.311 306.356 85.5898 306.356C38.8685 306.356 0.993408 312.097 0.993408 319.178C0.993408 326.259 38.8685 332 85.5898 332Z" fill="#EBEBEB"/>
<path d="M0 273.385L62.7404 273.232L125.481 273.156L251.038 273.003L376.519 273.156L439.26 273.232L502 273.385L439.26 273.614H376.519L251.038 273.766L125.481 273.614H62.7404L0 273.385Z" fill="#263238"/>
<path d="M418.397 82.3513H126.704V277.277H418.397V82.3513Z" fill="#DBDBDB"/>
<path d="M416.334 84.7937H128.844V274.911H416.334V84.7937Z" fill="#263238"/>
<path d="M456.454 291.855H88.7231V305.211H456.454V291.855Z" fill="#C7C7C7"/>
<path d="M88.7231 291.855L126.704 277.277H418.397L456.378 291.855H88.7231Z" fill="#DBDBDB"/>
<path d="M130.066 286.741L154.597 277.277H390.504L415.035 286.741H130.066Z" fill="#263238"/>
<path d="M400.056 99.2185H145.044V260.487H400.056V99.2185Z" fill="white"/>
<path d="M400.056 99.2185H144.815V105.401H400.056V99.2185Z" fill="#455A64"/>
<path d="M148.254 103.874C149.098 103.874 149.782 103.191 149.782 102.348C149.782 101.505 149.098 100.821 148.254 100.821C147.41 100.821 146.726 101.505 146.726 102.348C146.726 103.191 147.41 103.874 148.254 103.874Z" fill="#C7C7C7"/>
<path d="M154.52 103.874C155.364 103.874 156.049 103.191 156.049 102.348C156.049 101.505 155.364 100.821 154.52 100.821C153.676 100.821 152.992 101.505 152.992 102.348C152.992 103.191 153.676 103.874 154.52 103.874Z" fill="white"/>
<path d="M160.787 103.874C161.631 103.874 162.315 103.191 162.315 102.348C162.315 101.505 161.631 100.821 160.787 100.821C159.943 100.821 159.258 101.505 159.258 102.348C159.258 103.191 159.943 103.874 160.787 103.874Z" fill="#FFC727"/>
<path d="M462.262 205C467.993 193.171 478.081 187.141 489.467 190.499C500.854 193.857 502.611 209.656 494.129 213.625C485.646 217.594 477.164 205.993 472.731 203.55C468.223 201.184 462.262 205 462.262 205Z" fill="#EE5C51"/>
<path d="M456.683 236.521C456.683 235.071 456.76 233.697 456.836 232.247C456.912 229.423 457.065 226.523 457.142 223.699C457.371 218.509 457.906 213.396 460.046 208.588C461.956 204.313 465.089 200.497 469.216 198.055C470.744 197.139 472.349 196.452 474.03 195.994C475.406 194.392 477.622 193.399 479.609 192.942C482.207 192.331 484.958 192.407 487.633 192.713C487.71 192.713 487.71 192.865 487.633 192.865C485.111 192.56 482.513 192.713 480.068 193.399C478.998 193.705 478.004 194.086 477.011 194.544C476.399 194.85 475.788 195.231 475.253 195.689C477.546 195.231 479.838 195.231 482.207 195.765C483.048 195.994 483.812 196.223 484.653 196.529C485.264 196.376 485.952 196.376 486.563 196.376C487.404 196.376 488.244 196.529 489.009 196.758C490.69 197.139 492.218 197.979 493.67 198.818C493.747 198.895 493.67 198.971 493.594 198.971C492.142 198.208 490.614 197.597 489.009 197.292C488.244 197.139 487.48 196.987 486.64 196.987C486.181 196.987 485.799 196.987 485.341 196.987C488.55 198.513 491.225 201.032 492.677 204.314C492.753 204.39 492.6 204.466 492.524 204.39C490.843 200.574 487.175 197.902 483.201 196.91C482.972 196.834 482.666 196.834 482.437 196.758C482.513 197.139 482.513 197.521 482.589 197.902C482.666 198.513 482.742 199.047 482.895 199.582C483.124 200.726 483.43 201.948 483.812 203.016C484.194 204.161 484.653 205.306 485.188 206.374C485.723 207.443 486.334 208.664 487.098 209.58C487.175 209.656 487.022 209.732 486.945 209.656C486.258 208.588 485.493 207.595 484.882 206.527C484.271 205.458 483.736 204.39 483.354 203.245C482.895 202.1 482.589 200.879 482.36 199.734C482.207 199.124 482.131 198.437 482.054 197.826C481.978 197.445 481.902 197.063 481.978 196.681C480.679 196.452 479.303 196.452 477.928 196.605C478.463 199.429 478.998 202.329 480.526 204.848C480.603 204.924 480.45 205 480.373 204.924C479.685 203.627 478.921 202.329 478.386 200.879C477.928 199.505 477.546 198.131 477.393 196.681C475.024 196.987 472.731 197.75 470.744 198.895C466.847 201.108 463.867 204.542 461.88 208.588C459.74 212.938 458.899 217.67 458.594 222.478C458.212 228.508 458.135 234.613 457.524 240.643C457.447 241.024 456.836 241.177 456.76 240.719C456.53 239.193 456.683 237.819 456.683 236.521Z" fill="#263238"/>
<path d="M469.98 197.139C470.286 196.681 470.821 196.3 471.279 195.918C471.738 195.536 472.196 195.155 472.731 194.773C473.725 194.086 474.795 193.552 476.017 193.247C476.094 193.247 476.17 193.399 476.017 193.399C474.871 193.628 473.725 194.239 472.808 195.002C472.349 195.384 471.891 195.765 471.432 196.147C471.05 196.529 470.592 196.987 470.133 197.292C470.057 197.292 469.98 197.216 469.98 197.139Z" fill="#263238"/>
<path d="M488.397 201.413C489.314 202.558 490.231 203.703 491.072 204.924C491.836 206.145 492.524 207.443 493.059 208.816C493.059 208.893 492.983 208.893 492.983 208.816C491.607 206.298 490.155 203.703 488.321 201.49C488.245 201.413 488.321 201.337 488.397 201.413Z" fill="#263238"/>
<path d="M476.017 200.269C476.17 201.032 476.323 201.719 476.705 202.406C477.011 203.092 477.393 203.703 477.775 204.314C477.775 204.39 477.775 204.39 477.699 204.39C476.705 203.321 476.094 201.795 475.865 200.345C475.865 200.192 476.017 200.116 476.017 200.269Z" fill="#263238"/>
<path d="M457.524 205.306C457.524 205.306 449.347 195.079 433.605 198.666C418.626 202.1 411.749 229.5 426.88 232.782C442.011 236.063 439.336 210.725 444.838 206.374C448.888 203.321 454.696 204.008 457.524 205.306Z" fill="#EE5C51"/>
<path d="M421.454 213.701C422.524 212.785 423.517 211.946 424.663 211.183C425.733 210.496 426.88 209.809 428.102 209.427C428.714 208.511 429.401 207.595 430.166 206.756C431.541 205.229 433.146 204.008 434.904 202.94C434.751 202.94 434.598 202.94 434.445 202.94C433.605 202.94 432.764 202.94 431.923 202.94C430.242 203.092 428.637 203.474 427.032 204.161C426.956 204.237 426.88 204.085 426.956 204.008C428.484 203.321 430.166 202.864 431.77 202.558C432.611 202.406 433.375 202.329 434.216 202.329C434.674 202.329 435.133 202.329 435.515 202.406C435.591 202.406 435.668 202.406 435.744 202.406C437.196 201.642 438.725 201.108 440.253 200.727C440.1 200.65 439.947 200.65 439.795 200.574C439.03 200.421 438.266 200.269 437.426 200.192C435.821 200.04 434.292 200.04 432.688 200.269C432.611 200.269 432.535 200.116 432.688 200.116C434.292 199.887 435.897 199.887 437.426 199.887C438.725 199.963 440.1 200.116 441.399 200.421C442.316 200.269 443.31 200.116 444.303 200.116C449.806 199.887 455.766 201.948 459.129 206.451C462.491 210.954 463.179 216.983 463.79 222.402C464.631 229.958 465.013 237.666 464.402 245.222C464.402 245.68 463.714 245.604 463.714 245.146C463.485 238.658 463.255 232.247 462.644 225.76C462.338 222.784 462.033 219.807 461.574 216.83C461.116 214.312 460.581 211.793 459.434 209.504C458.212 207.061 456.454 205.153 454.161 203.779C451.869 202.406 449.271 201.719 446.672 201.49C444.303 201.261 441.934 201.566 439.642 202.177C439.718 202.635 439.718 203.092 439.718 203.55C439.642 204.161 439.565 204.695 439.336 205.229C439.183 205.764 438.954 206.298 438.648 206.756C438.343 207.29 437.96 207.748 437.655 208.282C437.578 208.359 437.502 208.282 437.502 208.206C438.19 207.366 438.495 206.145 438.725 205.077C438.801 204.543 438.877 204.008 438.877 203.474C438.877 203.092 438.877 202.635 438.877 202.253C436.432 203.016 434.063 204.237 432 205.84C431.618 206.145 431.236 206.451 430.853 206.832C431.388 207.29 431.847 207.901 432.153 208.435C432.688 209.198 433.146 210.038 433.528 210.954C434.292 212.709 434.674 214.541 434.98 216.449C434.98 216.525 434.827 216.601 434.827 216.449C434.598 214.617 433.91 212.938 433.07 211.259C432.688 210.496 432.153 209.656 431.694 208.969C431.465 208.588 431.159 208.206 430.853 207.824C430.701 207.595 430.548 207.443 430.395 207.214C428.561 209.046 427.032 211.183 425.963 213.472C426.727 214.159 427.262 215.228 427.797 216.144C428.332 217.136 428.867 218.204 429.249 219.273C430.089 221.333 430.624 223.547 431.159 225.684C431.159 225.76 431.006 225.836 431.006 225.684C430.548 223.47 429.707 221.41 428.79 219.349C428.332 218.357 427.797 217.365 427.338 216.449C426.88 215.533 426.268 214.693 425.886 213.701C424.816 215.991 424.205 218.433 424.129 220.952C424.129 221.028 423.976 221.028 423.976 220.952C424.281 217.059 425.428 213.167 427.491 209.809C426.498 210.19 425.581 210.648 424.663 211.106C423.517 211.717 422.371 212.48 421.377 213.396C421.53 213.854 421.377 213.778 421.454 213.701Z" fill="#263238"/>
<path d="M432.993 214.235C433.452 215.762 434.063 217.288 434.522 218.891C434.904 220.418 435.209 221.944 435.209 223.547C435.209 223.623 435.133 223.623 435.133 223.547C434.674 220.418 433.987 217.288 432.84 214.312C432.84 214.235 432.993 214.159 432.993 214.235Z" fill="#263238"/>
<path d="M423.059 210.419C423.67 209.809 424.358 209.351 425.122 208.969C425.886 208.588 426.727 208.359 427.567 208.13C427.644 208.13 427.72 208.282 427.567 208.282C426.727 208.435 425.963 208.817 425.275 209.274C424.511 209.58 423.746 209.961 423.059 210.419C423.059 210.496 422.982 210.419 423.059 210.419Z" fill="#263238"/>
<path d="M449.729 191.644C449.729 191.644 448.201 173.25 434.522 167.297C423.059 162.336 416.563 175.158 424.664 183.02C431.236 189.354 441.705 186.53 449.729 191.644Z" fill="#EE5C51"/>
<path d="M427.185 170.885C429.249 171.8 431.312 172.64 433.299 173.785C434.904 174.701 436.509 175.769 438.037 176.914C437.808 176.456 437.578 175.998 437.349 175.54C436.967 174.853 436.585 174.166 436.203 173.479C435.362 172.106 434.369 170.808 433.223 169.663C433.146 169.587 433.299 169.511 433.299 169.587C434.445 170.732 435.515 171.953 436.509 173.25C436.967 173.937 437.426 174.624 437.808 175.311C438.19 175.998 438.572 176.685 438.725 177.448C438.801 177.525 438.801 177.525 438.878 177.525C441.247 179.433 443.463 181.57 445.45 183.936C445.45 183.783 445.373 183.554 445.297 183.401C445.068 182.485 444.762 181.646 444.456 180.73C443.845 178.898 443.081 176.99 442.011 175.387C441.934 175.311 442.087 175.235 442.164 175.311C443.233 176.99 444.227 178.669 444.991 180.577C445.373 181.493 445.679 182.333 445.908 183.325C446.061 183.859 446.29 184.546 446.367 185.157C446.978 185.92 447.513 186.683 448.124 187.446C454.009 195.765 456.913 205.916 457.677 215.991C457.906 219.044 457.906 222.02 457.83 225.073C457.753 228.126 457.6 231.179 457.065 234.155C457.065 234.308 456.76 234.308 456.76 234.079C456.836 231.408 457.065 228.813 457.142 226.142C457.218 223.47 457.065 220.799 456.913 218.128C456.454 212.862 455.461 207.519 453.932 202.482C452.327 197.292 450.035 192.331 446.978 187.752C446.367 187.675 445.832 187.446 445.297 187.37C444.609 187.217 443.921 186.988 443.233 186.836C441.934 186.454 440.635 186.073 439.412 185.462C439.336 185.386 439.412 185.309 439.489 185.309C440.712 185.996 442.011 186.378 443.386 186.607C444.456 186.836 445.602 186.988 446.672 187.217C445.679 185.767 444.609 184.393 443.463 183.02C440.864 183.249 438.19 183.02 435.668 182.409C434.292 182.104 432.993 181.646 431.694 181.188C430.319 180.654 429.019 179.967 427.644 179.433C427.567 179.356 427.644 179.204 427.72 179.28C430.013 180.654 432.993 181.417 435.592 181.875C438.037 182.256 440.482 182.409 443.004 182.485C442.011 181.341 441.017 180.272 439.947 179.28C436.356 175.845 432.076 172.716 427.338 171.113C427.109 170.961 427.109 170.808 427.185 170.885Z" fill="#263238"/>
<path d="M438.343 170.961C438.954 171.724 439.489 172.563 440.024 173.403C440.559 174.319 440.941 175.235 441.247 176.227C441.247 176.227 441.17 176.303 441.17 176.227C440.712 175.311 440.33 174.395 439.871 173.479C439.413 172.563 438.878 171.8 438.266 170.961C438.19 170.961 438.266 170.884 438.343 170.961Z" fill="#263238"/>
<path d="M425.657 177.066C426.574 177.601 427.491 177.906 428.485 178.211C429.402 178.517 430.395 178.822 431.312 178.975C431.389 178.975 431.312 179.051 431.312 179.051C430.319 178.898 429.325 178.746 428.332 178.44C427.415 178.135 426.498 177.677 425.581 177.219C425.428 177.143 425.504 176.99 425.657 177.066Z" fill="#263238"/>
<path d="M460.428 188.362C460.504 189.125 462.491 181.722 474.107 175.082C484.653 169.053 497.186 153.407 486.869 143.485C478.463 135.471 456.53 152.873 460.428 188.362Z" fill="#EE5C51"/>
<path d="M452.404 231.179C452.557 223.394 453.168 215.609 454.238 207.977C455.231 200.879 456.76 193.934 459.129 187.141C459.969 184.699 460.963 182.333 462.033 179.967C461.956 179.051 462.033 178.059 462.109 177.219C462.185 176.074 462.262 174.853 462.415 173.708C462.491 172.564 462.644 171.342 462.797 170.198C462.95 169.053 463.179 167.832 463.255 166.687C463.255 166.61 463.408 166.61 463.408 166.687C463.103 167.908 463.103 169.205 463.026 170.426C462.95 171.571 462.873 172.716 462.873 173.861C462.873 175.006 462.873 176.151 462.873 177.295C462.873 177.677 462.873 178.135 462.873 178.593C463.943 176.303 465.166 174.014 466.389 171.8C465.624 166.992 466.618 162.031 467.611 157.299C467.611 157.223 467.764 157.223 467.764 157.375C467.229 159.818 467.076 162.336 467 164.779C466.923 166.763 467.076 168.747 467.076 170.655C467.382 170.198 467.611 169.74 467.917 169.282C469.445 166.839 471.05 164.473 472.731 162.107C472.579 160.963 472.655 159.818 472.808 158.673C472.961 157.452 473.266 156.154 473.648 154.933C474.031 153.712 474.413 152.491 474.948 151.346C475.482 150.125 476.094 148.98 476.629 147.759C476.705 147.683 476.858 147.759 476.782 147.835C476.094 148.904 475.712 150.278 475.33 151.499C474.948 152.644 474.642 153.865 474.413 155.086C474.183 156.307 473.954 157.528 473.801 158.749C473.725 159.589 473.648 160.428 473.496 161.192C476.017 157.91 478.692 154.704 481.596 151.804C481.672 151.728 481.749 151.804 481.672 151.88C477.317 156.841 473.343 162.184 469.904 167.832C469.751 168.061 469.675 168.289 469.522 168.442C470.133 168.061 470.897 167.755 471.509 167.374C472.655 166.763 473.725 166.152 474.871 165.542C475.941 164.931 477.087 164.321 478.157 163.786C478.692 163.481 479.303 163.176 479.838 162.871C480.45 162.565 481.214 162.26 481.825 161.802C481.902 161.726 481.978 161.878 481.902 161.955C480.755 162.565 479.838 163.481 478.692 164.168C477.622 164.855 476.476 165.542 475.406 166.152C473.343 167.297 471.127 168.137 469.063 169.282C467.688 171.724 466.389 174.243 465.166 176.838C466.389 176.074 467.688 175.311 468.91 174.624C469.751 174.166 470.515 173.708 471.356 173.25C472.196 172.792 472.961 172.411 473.648 171.877C473.725 171.8 473.801 171.953 473.725 171.953C472.426 173.25 470.821 174.09 469.292 175.006C467.841 175.845 466.312 176.685 464.784 177.448C463.561 180.119 462.415 182.943 461.421 185.691C456.53 199.429 454.773 214.083 453.932 228.584C453.703 232.934 453.55 237.208 453.474 241.558C453.397 245.909 453.626 250.183 453.626 254.533C453.626 254.686 453.397 254.686 453.397 254.533C452.862 250.717 452.786 246.825 452.633 242.932C452.327 239.04 452.327 235.071 452.404 231.179Z" fill="#263238"/>
<path d="M473.419 168.824C475.559 167.984 477.546 166.763 479.533 165.618C481.52 164.473 483.506 163.252 485.341 161.878C485.341 161.878 485.417 161.878 485.417 161.955C483.659 163.405 481.749 164.702 479.838 165.847C477.775 167.068 475.635 167.908 473.496 168.9C473.419 168.976 473.343 168.824 473.419 168.824Z" fill="#263238"/>
<path d="M470.133 153.254C470.286 152.567 470.515 151.957 470.744 151.27C470.744 151.27 470.668 151.193 470.744 151.193C470.897 150.812 471.05 150.43 471.203 150.049C471.203 149.972 471.203 149.972 471.279 149.896C471.279 149.82 471.356 149.743 471.356 149.667C471.279 149.82 471.279 149.896 471.279 150.049C471.279 150.125 471.279 150.201 471.203 150.278C470.439 152.872 469.904 155.467 469.522 158.139C469.522 158.215 469.369 158.215 469.369 158.139C469.369 156.536 469.675 154.857 470.133 153.254Z" fill="#263238"/>
<path d="M440.177 234.003L441.017 243.772L443.539 273.537H470.668L473.19 243.772L473.954 234.003H440.177Z" fill="#455A64"/>
<path d="M440.177 234.003L441.017 243.772H473.19L473.954 234.003H440.177Z" fill="#263238"/>
<path d="M437.492 239.431H476.619V230.044H437.492V239.431Z" fill="#455A64"/>
<path d="M332.654 204.542H320.351V252.549H332.654V204.542Z" fill="#EE5C51"/>
<path d="M332.654 254.915H320.351V262.853H332.654V254.915Z" fill="#EE5C51"/>
<path d="M332.654 265.219H320.351V270.103H332.654V265.219Z" fill="#EE5C51"/>
<path d="M332.654 272.469H320.351V274.911H332.654V272.469Z" fill="#EE5C51"/>
<path d="M336.857 204.543H316.301L326.541 190.347L336.857 204.543Z" fill="#EE5C51"/>
<path d="M357.185 189.278H344.882V252.549H357.185V189.278Z" fill="#EE5C51"/>
<path d="M357.185 254.915H344.882V262.853H357.185V254.915Z" fill="#EE5C51"/>
<path d="M357.185 265.218H344.882V270.103H357.185V265.218Z" fill="#EE5C51"/>
<path d="M357.185 272.469H344.882V274.911H357.185V272.469Z" fill="#EE5C51"/>
<path d="M361.388 189.278H340.831L351.072 175.082L361.388 189.278Z" fill="#EE5C51"/>
<path d="M381.792 174.014H369.489V252.549H381.792V174.014Z" fill="#EE5C51"/>
<path d="M381.792 254.915H369.489V262.852H381.792V254.915Z" fill="#EE5C51"/>
<path d="M381.792 265.218H369.489V270.103H381.792V265.218Z" fill="#EE5C51"/>
<path d="M381.792 272.469H369.489V274.911H381.792V272.469Z" fill="#EE5C51"/>
<path d="M385.919 174.014H365.362L375.602 159.818L385.919 174.014Z" fill="#EE5C51"/>
<path d="M406.323 158.749H394.019V252.549H406.323V158.749Z" fill="#EE5C51"/>
<path d="M406.323 254.915H394.019V262.852H406.323V254.915Z" fill="#EE5C51"/>
<path d="M406.323 265.218H394.019V270.103H406.323V265.218Z" fill="#EE5C51"/>
<path d="M406.323 272.469H394.019V274.911H406.323V272.469Z" fill="#EE5C51"/>
<path d="M410.449 158.749H389.893L400.133 144.553L410.449 158.749Z" fill="#EE5C51"/>
<path opacity="0.6" d="M200.448 242.551C200.448 245.527 198.003 247.97 195.023 247.97C192.042 247.97 189.597 245.527 189.597 242.551C189.597 239.574 192.042 237.132 195.023 237.132C198.003 237.132 200.448 239.574 200.448 242.551Z" fill="#EE5C51"/>
<path opacity="0.6" d="M207.021 232.247C207.021 233.698 205.874 234.919 204.346 234.919C202.894 234.919 201.671 233.774 201.671 232.247C201.671 230.797 202.817 229.576 204.346 229.576C205.874 229.576 207.021 230.797 207.021 232.247Z" fill="#EE5C51"/>
<path opacity="0.6" d="M323.025 239.956C323.025 241.406 321.879 242.627 320.351 242.627C318.899 242.627 317.676 241.482 317.676 239.956C317.676 238.506 318.822 237.285 320.351 237.285C321.879 237.285 323.025 238.506 323.025 239.956Z" fill="#EE5C51"/>
<path opacity="0.6" d="M375.908 264.074C375.908 265.524 374.761 266.745 373.233 266.745C371.705 266.745 370.558 265.6 370.558 264.074C370.558 262.623 371.705 261.402 373.233 261.402C374.761 261.402 375.908 262.547 375.908 264.074Z" fill="#EE5C51"/>
<path opacity="0.6" d="M371.858 271.782C371.858 273.538 370.482 274.911 368.724 274.911H172.326C170.568 274.911 169.193 273.538 169.193 271.782C169.193 270.027 170.568 268.653 172.326 268.653C172.555 268.653 172.861 268.653 173.09 268.729C173.09 265.295 175.841 262.547 179.28 262.547C181.038 262.547 182.566 263.234 183.713 264.379H183.789C183.789 263.997 183.713 263.616 183.713 263.234C183.713 256.747 188.986 251.557 195.405 251.557C197.239 251.557 198.996 252.015 200.601 252.778C200.831 248.351 204.499 244.917 208.931 244.917C212.523 244.917 215.503 247.13 216.726 250.259C218.789 246.978 222.457 244.764 226.66 244.764C227.425 244.764 228.189 244.841 228.877 244.993C228.724 244.077 228.647 243.161 228.647 242.246C228.647 233.469 235.754 226.371 244.543 226.371C248.516 226.371 252.108 227.821 254.936 230.187C255.471 229.195 256.54 228.508 257.763 228.508C258.222 228.508 258.604 228.584 258.986 228.737L261.966 150.049H279.237L282.217 228.737C282.599 228.584 282.982 228.508 283.44 228.508C284.663 228.508 285.733 229.195 286.268 230.187C289.019 227.821 292.687 226.371 296.661 226.371C305.449 226.371 312.556 233.469 312.556 242.246C312.556 243.161 312.48 244.077 312.327 244.993C313.014 244.841 313.779 244.764 314.543 244.764C318.746 244.764 322.414 246.978 324.477 250.259C325.7 247.13 328.757 244.917 332.272 244.917C336.705 244.917 340.373 248.428 340.602 252.778C342.13 252.015 343.888 251.557 345.798 251.557C352.294 251.557 357.491 256.823 357.491 263.234C357.491 263.616 357.491 263.997 357.414 264.379H357.491C358.637 263.234 360.165 262.547 361.923 262.547C365.362 262.547 368.113 265.295 368.113 268.729C368.342 268.653 368.571 268.653 368.877 268.653C370.482 268.577 371.858 270.027 371.858 271.782Z" fill="#EE5C51"/>
<path d="M322.108 245.833L317.982 246.596L317.065 250.946L316.148 246.596L312.097 245.833L316.148 244.84L317.065 240.795L317.982 244.84L322.108 245.833Z" fill="#FCFCFC"/>
<path d="M282.37 211.335L278.243 212.099L277.326 216.449L276.409 212.099L272.359 211.335L276.409 210.343L277.326 206.298L278.32 210.343L282.37 211.335Z" fill="#FCFCFC"/>
<path d="M222.992 254.075L220.7 254.457L220.165 256.899L219.706 254.457L217.414 254.075L219.706 253.465L220.165 251.251L220.7 253.465L222.992 254.075Z" fill="#FCFCFC"/>
<path d="M345.798 261.25L343.582 261.631L343.047 264.074L342.512 261.631L340.22 261.25L342.512 260.639L343.047 258.426L343.582 260.639L345.798 261.25Z" fill="#FCFCFC"/>
<path d="M191.584 269.645L189.291 270.027L188.756 272.469L188.298 270.027L186.005 269.645L188.221 269.111L188.756 266.821L189.291 269.111L191.584 269.645Z" fill="#FCFCFC"/>
<path d="M290.853 267.661L288.637 268.042L288.102 270.485L287.567 268.042L285.274 267.661L287.567 267.05L288.102 264.837L288.637 267.05L290.853 267.661Z" fill="#FCFCFC"/>
<path d="M274.193 204.848L271.901 205.229L271.366 207.672L270.831 205.229L268.615 204.848L270.831 204.237L271.366 202.024L271.901 204.237L274.193 204.848Z" fill="#FCFCFC"/>
<path d="M351.224 266.44C350.384 266.44 350.384 267.737 351.224 267.737C352.065 267.737 352.065 266.44 351.224 266.44Z" fill="#FCFCFC"/>
<path d="M265.329 196.529C264.488 196.529 264.488 197.826 265.329 197.826C266.169 197.826 266.169 196.529 265.329 196.529Z" fill="#FCFCFC"/>
<path d="M208.855 269.645C208.014 269.645 208.014 270.943 208.855 270.943C209.695 270.943 209.695 269.645 208.855 269.645Z" fill="#FCFCFC"/>
<path d="M250.809 260.563C249.968 260.563 249.968 261.86 250.809 261.86C251.65 261.86 251.65 260.563 250.809 260.563Z" fill="#FCFCFC"/>
<path d="M334.641 254.533C334.03 254.533 334.03 255.449 334.641 255.449C335.252 255.449 335.252 254.533 334.641 254.533Z" fill="#FCFCFC"/>
<path d="M276.792 247.512C276.18 247.512 276.18 248.428 276.792 248.428C277.403 248.428 277.403 247.512 276.792 247.512Z" fill="#FCFCFC"/>
<path d="M234.455 238.353C233.844 238.353 233.844 239.269 234.455 239.269C235.066 239.345 235.066 238.353 234.455 238.353Z" fill="#FCFCFC"/>
<path d="M306.901 240.261C305.296 240.261 305.296 242.78 306.901 242.78C308.506 242.856 308.582 240.261 306.901 240.261Z" fill="#FCFCFC"/>
<path d="M240.416 234.079C238.811 234.079 238.811 236.598 240.416 236.598C242.097 236.598 242.097 234.079 240.416 234.079Z" fill="#FCFCFC"/>
<path d="M241.104 87.77C240.492 87.77 217.413 98.3788 216.038 124.633C214.815 148.751 231.475 171.571 233.614 170.121C236.213 168.29 231.78 153.254 236.9 136.082C238.735 129.976 246.682 124.557 246.682 124.557L241.104 87.77Z" fill="#EE5C51"/>
<path opacity="0.1" d="M246.606 124.557C246.606 124.557 243.167 126.923 240.263 130.205C236.824 122.573 230.405 108.224 226.278 98.9893C233.079 91.2045 240.721 87.77 241.103 87.77L246.606 124.557Z" fill="black"/>
<path d="M299.794 87.8464C300.405 87.8464 323.484 98.5315 324.783 124.71C326.006 148.828 309.27 171.648 307.13 170.121C304.532 168.29 308.964 153.254 303.92 136.082C302.086 129.976 294.139 124.557 294.139 124.557L299.794 87.8464Z" fill="#EE5C51"/>
<path opacity="0.1" d="M314.619 99.2184C310.416 108.53 303.997 122.878 300.634 130.434C297.73 127 294.215 124.634 294.215 124.634L299.794 87.8464C300.176 87.8464 307.894 91.3572 314.619 99.2184Z" fill="black"/>
<path d="M287.872 148.064H253.025C253.025 148.064 236.595 118.757 238.582 83.8014C239.575 66.4 244.16 48.7697 249.586 34.2685C257.228 14.1959 266.551 0 270.602 0C274.652 0 283.975 14.2722 291.54 34.3448C296.966 48.846 301.551 66.4763 302.468 83.8777C304.379 118.833 287.872 148.064 287.872 148.064Z" fill="#EBEBEB"/>
<path d="M291.388 79.3749C291.388 90.4416 282.37 99.4475 271.289 99.4475C260.208 99.4475 251.191 90.4416 251.191 79.3749C251.191 68.3082 260.208 59.3022 271.289 59.3022C282.37 59.3022 291.388 68.2319 291.388 79.3749Z" fill="#C7C7C7"/>
<path d="M290.7 77.3141C290.7 88.3808 281.682 97.3867 270.602 97.3867C259.521 97.3867 250.503 88.3808 250.503 77.3141C250.503 66.2474 259.521 57.2415 270.602 57.2415C281.682 57.2415 290.7 66.2474 290.7 77.3141Z" fill="#EE5C51"/>
<path d="M284.51 77.3141C284.51 85.0226 278.243 91.2046 270.601 91.2046C262.883 91.2046 256.693 84.9462 256.693 77.3141C256.693 69.6819 262.883 63.3472 270.601 63.3472C278.32 63.3472 284.51 69.6056 284.51 77.3141Z" fill="white"/>
<path d="M284.51 77.314C284.51 79.0694 284.204 80.8248 283.593 82.3512L275.645 90.2887C274.117 90.8993 272.359 91.2046 270.601 91.2046C269.302 91.2046 268.08 91.0519 266.857 90.6703L283.975 73.5742C284.357 74.719 284.51 76.0165 284.51 77.314Z" fill="#EBEBEB"/>
<path d="M272.665 63.4998L256.846 79.2984C256.77 78.6115 256.693 77.9246 256.693 77.2377C256.693 69.5292 262.96 63.3472 270.601 63.3472C271.289 63.3472 271.977 63.4235 272.665 63.4998Z" fill="#EBEBEB"/>
<path d="M282.752 70.5214L263.8 89.4492C263.418 89.2202 263.112 89.0676 262.73 88.7623L282.141 69.4529C282.37 69.8345 282.599 70.2161 282.752 70.5214Z" fill="#EBEBEB"/>
<path d="M291.541 34.3448H249.663C257.228 14.1959 266.551 0 270.602 0C274.652 0 283.975 14.2722 291.541 34.3448Z" fill="#EE5C51"/>
<path d="M256.846 29.9944C256.846 30.605 256.311 31.1392 255.7 31.1392C255.088 31.1392 254.553 30.605 254.553 29.9944C254.553 29.3838 255.088 28.8496 255.7 28.8496C256.311 28.7732 256.846 29.3075 256.846 29.9944Z" fill="white"/>
<path d="M264.335 29.9944C264.335 30.605 263.8 31.1393 263.189 31.1393C262.577 31.1393 262.042 30.605 262.042 29.9944C262.042 29.3839 262.577 28.8496 263.189 28.8496C263.8 28.8496 264.335 29.3075 264.335 29.9944Z" fill="white"/>
<path d="M271.748 29.9944C271.748 30.605 271.213 31.1393 270.602 31.1393C269.99 31.1393 269.455 30.605 269.455 29.9944C269.455 29.3839 269.99 28.8496 270.602 28.8496C271.213 28.8496 271.748 29.3075 271.748 29.9944Z" fill="white"/>
<path d="M279.237 29.9944C279.237 30.605 278.702 31.1393 278.091 31.1393C277.479 31.1393 276.944 30.605 276.944 29.9944C276.944 29.3839 277.479 28.8496 278.091 28.8496C278.702 28.8496 279.237 29.3839 279.237 29.9944Z" fill="white"/>
<path d="M286.65 29.9944C286.65 30.605 286.115 31.1393 285.503 31.1393C284.892 31.1393 284.357 30.605 284.357 29.9944C284.357 29.3839 284.892 28.8496 285.503 28.8496C286.115 28.8496 286.65 29.3839 286.65 29.9944Z" fill="white"/>
<path d="M256.846 142.722C256.846 143.332 256.311 143.867 255.7 143.867C255.088 143.867 254.553 143.332 254.553 142.722C254.553 142.111 255.088 141.577 255.7 141.577C256.311 141.501 256.846 142.035 256.846 142.722Z" fill="#C7C7C7"/>
<path d="M264.259 142.722C264.259 143.333 263.724 143.867 263.112 143.867C262.501 143.867 261.966 143.333 261.966 142.722C261.966 142.111 262.501 141.577 263.112 141.577C263.724 141.577 264.259 142.035 264.259 142.722Z" fill="#C7C7C7"/>
<path d="M271.671 142.722C271.671 143.333 271.137 143.867 270.525 143.867C269.914 143.867 269.379 143.333 269.379 142.722C269.379 142.111 269.914 141.577 270.525 141.577C271.213 141.577 271.671 142.035 271.671 142.722Z" fill="#C7C7C7"/>
<path d="M279.161 142.722C279.161 143.333 278.626 143.867 278.014 143.867C277.403 143.867 276.868 143.333 276.868 142.722C276.868 142.111 277.403 141.577 278.014 141.577C278.626 141.577 279.161 142.111 279.161 142.722Z" fill="#C7C7C7"/>
<path d="M286.573 142.722C286.573 143.333 286.038 143.867 285.427 143.867C284.816 143.867 284.281 143.333 284.281 142.722C284.281 142.111 284.816 141.577 285.427 141.577C286.115 141.577 286.573 142.111 286.573 142.722Z" fill="#C7C7C7"/>
<path d="M284.663 158.521H256.388L255.012 148.064H286.038L284.663 158.521Z" fill="#EE5C51"/>
<path opacity="0.1" d="M286.038 148.064L285.351 153.178L255.547 152.033L255.012 148.064H286.038Z" fill="black"/>
<path d="M135.568 313.988C133.963 314.522 87.0416 314.675 85.2839 313.606C84.5962 313.148 84.2141 306.356 83.9084 298.113C83.832 296.358 83.832 294.526 83.7555 292.618L79.9346 267.661L111.267 267.432L114.247 292.389L114.094 297.884C114.094 297.884 132.053 305.822 133.887 307.272C135.721 308.722 137.173 313.454 135.568 313.988Z" fill="#D3766A"/>
<path d="M135.568 313.988C133.963 314.522 87.0417 314.675 85.284 313.606C84.4434 313.072 83.9849 303.15 83.7556 292.618L114.247 292.389L114.094 297.884C114.094 297.884 132.053 305.822 133.887 307.272C135.721 308.722 137.173 313.454 135.568 313.988Z" fill="white"/>
<path d="M135.568 313.988C133.963 314.522 87.0416 314.675 85.284 313.606C84.5962 313.148 84.2141 306.356 83.9084 298.113L114.171 297.884C114.171 297.884 132.129 305.822 133.963 307.272C135.721 308.722 137.173 313.454 135.568 313.988Z" fill="#EE5C51"/>
<path d="M134.88 312.08C127.009 311.927 95.295 312.003 87.5002 312.385C87.4238 312.385 87.4238 312.461 87.5002 312.461C95.295 312.767 127.009 312.461 134.88 312.232C135.033 312.232 135.033 312.08 134.88 312.08Z" fill="#263238"/>
<path d="M117.151 298.647C114.018 298.647 110.35 299.716 108.439 302.311C108.363 302.387 108.515 302.54 108.592 302.463C111.419 301.013 114.094 299.868 117.227 299.029C117.457 298.953 117.38 298.647 117.151 298.647Z" fill="#263238"/>
<path d="M119.596 299.563C116.463 299.563 112.795 300.631 110.885 303.226C110.808 303.303 110.961 303.455 111.037 303.379C113.865 301.929 116.54 300.784 119.673 299.945C119.826 299.945 119.826 299.563 119.596 299.563Z" fill="#263238"/>
<path d="M122.042 300.555C118.909 300.555 115.24 301.624 113.33 304.219C113.253 304.295 113.406 304.448 113.483 304.371C116.31 302.921 118.985 301.776 122.118 300.937C122.271 300.86 122.271 300.555 122.042 300.555Z" fill="#263238"/>
<path d="M30.3384 157.375C30.3384 157.375 71.4521 219.196 72.4455 223.547C73.9739 230.187 81.9216 297.121 81.9216 297.121L116.234 296.434C116.234 296.434 108.439 237.284 102.326 218.128C97.8933 204.313 65.7206 158.597 65.7206 158.597L30.3384 157.375Z" fill="#37474F"/>
<path d="M115.24 290.633C109.815 290.557 90.5569 290.404 83.2971 291.015C83.2206 291.015 83.2206 291.091 83.2971 291.091C85.8189 291.473 109.815 290.862 115.24 290.71C115.317 290.786 115.317 290.633 115.24 290.633Z" fill="#263238"/>
<path d="M62.5113 324.444C60.7536 324.52 14.2906 312.309 12.8386 310.783C12.7622 310.706 12.7622 310.63 12.7622 310.477C12.6093 308.951 14.9783 303.227 16.6596 295.976C16.736 295.518 17.653 293.305 18.8757 290.328C22.1618 282.009 28.1989 267.89 28.1989 267.89L58.6139 275.674L47.3802 298.113L45.8518 303.379C45.8518 303.379 61.2122 315.667 62.5877 317.499C64.0397 319.407 64.2689 324.291 62.5113 324.444Z" fill="#D3766A"/>
<path d="M62.511 324.444C60.7534 324.521 14.2903 312.309 12.8383 310.783C12.7619 310.706 12.7619 310.63 12.7619 310.477C12.6091 308.951 14.9781 303.227 16.6593 295.976C16.7357 295.518 17.6528 293.305 18.8755 290.328L47.38 298.113L45.8516 303.379C45.8516 303.379 61.2119 315.667 62.5875 317.499C64.0394 319.407 64.2687 324.292 62.511 324.444Z" fill="white"/>
<path d="M62.5111 324.444C60.7534 324.597 14.2904 312.309 12.8384 310.783C12.3035 310.172 13.5262 303.914 16.5829 295.9L45.8516 303.379C45.8516 303.379 61.212 315.667 62.5875 317.499C64.0395 319.407 64.2687 324.292 62.5111 324.444Z" fill="#EE5C51"/>
<path d="M62.3583 322.46C54.7927 320.323 24.0721 312.309 16.4301 310.782C16.3537 310.782 16.3537 310.782 16.4301 310.859C23.8428 313.148 54.6399 320.933 62.2818 322.612C62.5111 322.612 62.5111 322.46 62.3583 322.46Z" fill="#263238"/>
<path d="M48.6027 304.906C45.5459 304.066 41.7249 304.219 39.2031 306.203C39.1267 306.28 39.2031 306.432 39.3559 306.432C42.4891 305.745 45.3931 305.364 48.6027 305.287C48.8319 305.287 48.8319 304.982 48.6027 304.906Z" fill="#263238"/>
<path d="M50.7426 306.432C47.6858 305.593 43.8648 305.745 41.343 307.73C41.2665 307.806 41.343 307.959 41.4958 307.959C44.629 307.272 47.533 306.89 50.7426 306.814C50.8954 306.814 50.9718 306.508 50.7426 306.432Z" fill="#263238"/>
<path d="M52.8822 307.959C49.8254 307.119 46.0045 307.272 43.4826 309.256C43.4062 309.333 43.4826 309.485 43.6355 309.485C46.7687 308.798 49.6726 308.417 52.8822 308.34C53.0351 308.34 53.0351 308.035 52.8822 307.959Z" fill="#263238"/>
<path d="M47.9913 303.456L13.9846 294.526C13.9846 294.526 48.0677 223.699 47.8385 219.273C47.6092 215.38 23.9956 180.959 22.6964 174.548C20.5567 164.016 25.6768 154.628 30.6441 148.751L65.7206 158.749C65.7206 158.749 62.8931 164.855 57.773 168.671C57.773 168.671 79.8583 205.535 80.4696 217.67C81.081 229.881 47.9913 303.456 47.9913 303.456Z" fill="#37474F"/>
<path d="M48.5262 297.35C43.5589 295.9 45.0109 296.281 40.0436 294.908C37.5982 294.221 21.7029 289.87 19.3339 289.641C19.2575 289.641 19.2575 289.718 19.3339 289.718C21.4737 290.71 37.5218 294.755 39.9672 295.365C44.9345 296.663 43.5589 296.205 48.5262 297.426C48.6026 297.503 48.6026 297.35 48.5262 297.35Z" fill="#263238"/>
<path d="M63.1987 167.221C59.8362 168.442 56.5502 170.045 53.417 171.8C53.2641 171.877 53.417 172.029 53.4934 172.029C56.7794 170.579 60.1419 169.205 63.3515 167.603C63.6572 167.45 63.4279 167.145 63.1987 167.221Z" fill="#263238"/>
<path d="M59.0721 166.382C58.8429 166.992 58.6136 167.603 58.4608 168.29C58.3079 168.824 58.1551 169.358 58.2315 169.816C58.2315 169.892 58.3843 169.892 58.4608 169.892C58.7664 169.434 58.9193 168.9 59.1485 168.366C59.3778 167.755 59.6071 167.221 59.7599 166.611C59.8363 166.153 59.225 166 59.0721 166.382Z" fill="#263238"/>
<path d="M59.072 163.176C59.2249 162.642 59.3777 162.107 59.5306 161.573C59.6834 161.039 59.9127 160.428 59.9891 159.894C59.9891 159.818 60.1419 159.818 60.1419 159.97C59.9891 160.505 59.9127 161.039 59.8362 161.65C59.7598 162.184 59.607 162.718 59.5306 163.329C59.3013 164.321 59.072 165.389 58.7664 166.381C59.3013 166.305 59.8362 166.229 60.3712 165.924C60.9061 165.618 61.1354 165.008 61.3646 164.397C61.5939 163.787 61.7467 163.176 61.976 162.565C62.2052 161.878 62.5109 161.192 62.6638 160.505C62.6638 160.428 62.8166 160.428 62.8166 160.581C62.5109 162.031 62.2052 163.558 61.5939 164.931C61.3646 165.466 61.1354 166.076 60.6004 166.305C59.9891 166.61 59.3777 166.61 58.69 166.687C58.6135 166.687 58.5371 166.687 58.5371 166.61C58.6135 165.313 58.7664 164.244 59.072 163.176Z" fill="#263238"/>
<path d="M58.4609 169.816C59.8364 172.258 61.3648 174.548 62.7403 176.914C64.1159 179.204 65.4915 181.57 66.7906 183.936C69.3888 188.744 71.8343 193.628 74.1269 198.589C75.1967 201.032 76.2666 203.55 77.2601 206.069C78.2535 208.588 79.1706 211.106 79.7819 213.777C80.3933 216.449 80.5461 219.12 80.0876 221.791C79.6291 224.539 78.8649 227.134 78.0243 229.805C76.1138 235.834 74.0504 241.711 71.3758 247.435C71.2993 247.588 70.9937 247.512 71.0701 247.283C72.9041 242.017 74.8911 236.827 76.4959 231.484C78.1007 226.371 80.0112 221.028 79.1705 215.533C78.712 212.862 77.8714 210.343 76.9544 207.901C76.0373 205.382 74.9675 202.863 73.8976 200.345C71.7579 195.46 69.3888 190.652 66.9434 185.92C65.5679 183.249 64.1159 180.654 62.7403 177.983C61.3648 175.311 59.9892 172.564 58.3844 169.969C58.308 169.816 58.4609 169.74 58.4609 169.816Z" fill="#263238"/>
<path d="M32.8602 164.702C33.4716 164.626 34.465 164.855 37.2161 164.626C37.9803 164.55 38.7445 164.397 39.5087 164.244C40.2729 164.092 41.0371 163.863 41.6485 163.405C42.6419 162.565 43.4061 161.268 44.0175 160.123C44.7053 158.902 45.393 157.452 45.6987 156.078C45.6987 156.002 45.8516 156.002 45.8516 156.154C45.6987 156.994 45.6223 157.757 45.393 158.597C45.1638 159.36 44.9345 160.047 44.5524 160.81C43.9411 162.107 43.2533 163.558 42.107 164.473C40.8843 165.389 39.1266 165.618 37.5982 165.695C36.7576 165.771 33.3188 165.695 32.8602 165.16C32.7074 164.855 32.7074 164.702 32.8602 164.702Z" fill="#263238"/>
<path d="M20.8624 288.725C24.5305 279.109 44.5525 236.369 48.4499 227.439C49.3669 225.302 50.5132 223.165 50.9717 220.875C51.5066 218.357 50.7425 216.143 49.6726 213.93C47.7621 209.809 45.4695 205.84 43.1005 202.024C40.7315 198.131 38.2096 194.392 35.6878 190.576C33.2424 186.836 30.6441 183.02 28.5808 178.975C26.6703 175.082 25.6004 171.037 26.1354 166.687C26.6703 162.413 28.5808 158.368 30.5677 154.552C31.1026 153.559 31.6376 152.567 32.1725 151.575C32.2489 151.499 32.3253 151.575 32.3253 151.651C30.1092 155.62 27.9694 159.818 26.8996 164.244C26.3646 166.458 26.1354 168.747 26.441 170.961C26.6703 173.25 27.4345 175.464 28.3515 177.524C30.1856 181.57 32.7839 185.309 35.2293 189.049C37.7511 192.865 40.273 196.605 42.642 200.497C45.0874 204.39 47.38 208.359 49.4433 212.404C50.3603 214.235 51.3538 216.143 51.5831 218.204C51.8123 220.494 50.9717 222.631 50.1311 224.615C46.3101 233.468 21.703 287.733 21.1681 288.802C20.9388 289.031 20.786 288.878 20.8624 288.725Z" fill="#263238"/>
<path d="M67.937 119.062C73.3628 122.115 93.2319 133.105 100.645 132.113C112.413 130.51 129.76 113.033 134.04 108.606C135.874 106.698 121.049 90.5176 118.909 92.4256C117.457 93.7231 100.797 112.269 98.8105 113.033C96.8236 113.796 80.0113 111.582 69.9239 109.598C60.3715 107.614 56.4741 112.575 67.937 119.062Z" fill="#D3766A"/>
<path d="M139.695 101.813C137.632 105.858 130.066 112.422 127.621 113.338C125.175 114.254 113.559 101.813 113.942 99.2183C114.4 96.6234 122.501 83.496 126.78 81.6643C131.06 79.7562 141.911 97.6919 139.695 101.813Z" fill="#D3766A"/>
<path d="M120.819 85.862C120.972 88.3043 123.723 86.7015 123.723 86.7015C123.723 86.7015 120.284 89.9071 121.431 92.3494C122.501 94.7153 125.787 92.6546 126.016 92.502C125.863 92.6546 122.806 95.7075 124.182 97.9972C125.634 100.439 128.538 97.8445 128.767 97.6919C128.614 97.9209 127.162 100.745 128.614 102.271C131.136 104.866 135.186 97.6919 138.014 97.005C138.014 97.005 139.695 101.737 139.771 101.813C139.771 101.813 143.822 95.0206 142.675 91.2045C142.064 89.2202 140.077 89.3728 140.077 89.3728C140.077 89.3728 141.606 87.3121 140.612 85.4804C140.077 84.5645 138.09 84.5645 138.09 84.5645C138.09 84.5645 139.237 82.8855 138.243 81.2827C137.402 79.9852 135.568 80.2142 135.568 80.2142C135.568 80.2142 135.95 78.0772 134.651 77.0087C132.129 74.948 120.514 80.6721 120.819 85.862Z" fill="#D3766A"/>
<path d="M135.186 80.2142C135.186 80.1379 135.263 80.1379 135.186 80.2142C130.907 81.1301 126.474 83.4961 123.57 86.7779C123.494 86.8542 123.647 87.0832 123.723 87.0069C127.391 84.183 130.907 81.8933 135.186 80.2142Z" fill="#263238"/>
<path d="M138.09 84.4882C138.166 84.4882 138.09 84.4119 138.09 84.4119C133.658 85.404 128.767 88.228 125.863 92.4257C125.787 92.5783 125.787 92.8073 125.939 92.6546C128.079 90.0597 134.193 86.0146 138.09 84.4882Z" fill="#263238"/>
<path d="M128.614 98.0735C131.594 94.1048 135.492 91.5861 139.848 89.4491C139.924 89.4491 139.848 89.3728 139.771 89.3728C137.326 89.8307 134.651 91.4335 132.664 92.8836C130.754 94.2574 129.378 95.8602 128.385 97.9972C128.461 98.0735 128.538 98.1498 128.614 98.0735Z" fill="#263238"/>
<path d="M123.723 86.7017C123.112 87.3886 122.577 88.0755 122.118 88.915C121.66 89.6782 121.278 90.5178 121.278 91.3573C121.278 91.7389 121.431 92.1205 121.66 92.4258C121.966 92.7311 122.271 92.9601 122.653 93.0364C123.418 93.2653 124.335 93.0364 124.946 92.5784L126.627 91.5099L125.405 93.1127C124.87 93.7996 124.411 94.6391 124.182 95.4024C123.876 96.2419 123.876 97.0814 124.258 97.7683C124.64 98.4552 125.405 98.8368 126.169 98.6079C126.933 98.4552 127.697 97.921 128.308 97.3104L130.066 95.7076L128.996 97.7683C128.691 98.3026 128.461 98.9895 128.308 99.6001C128.156 100.211 128.156 100.898 128.308 101.432C128.538 101.966 128.996 102.348 129.531 102.424C130.066 102.424 130.754 102.195 131.289 101.813C132.435 101.126 133.429 100.211 134.498 99.2948C135.033 98.8368 135.568 98.3789 136.103 97.9973C136.638 97.6157 137.25 97.1578 137.937 97.0051C137.25 97.2341 136.791 97.692 136.256 98.1499C135.721 98.6079 135.263 99.0658 134.804 99.6001C133.811 100.592 132.817 101.508 131.671 102.348C131.06 102.729 130.448 103.111 129.608 103.111C128.767 103.111 128.003 102.5 127.697 101.737C127.391 100.974 127.468 100.211 127.621 99.5237C127.774 98.8368 128.003 98.1499 128.385 97.463L128.996 97.921C128.308 98.6079 127.468 99.1421 126.474 99.4474C125.939 99.6001 125.328 99.5237 124.87 99.2948C124.335 99.0658 123.953 98.6079 123.723 98.1499C123.188 97.1578 123.341 96.0892 123.647 95.1734C123.953 94.2575 124.487 93.418 125.099 92.6548L125.557 93.189C124.717 93.7233 123.647 93.9522 122.653 93.5706C122.195 93.418 121.736 93.1127 121.431 92.7311C121.125 92.3495 120.972 91.8152 120.972 91.3573C121.049 90.3651 121.507 89.5256 122.042 88.7624C122.424 87.9991 123.035 87.3122 123.723 86.7017Z" fill="#263238"/>
<path d="M114.935 96.7761C114.935 96.7761 116.387 77.4666 123.647 81.7407C125.787 83.0381 133.199 90.7466 131.671 92.2731C129.684 94.1811 126.016 91.5862 123.953 89.5255C123.953 89.5255 124.411 96.1655 119.826 97.8446C116.998 98.8367 114.935 96.7761 114.935 96.7761Z" fill="#D3766A"/>
<path d="M123.036 81.4353C123.953 81.8169 124.793 82.4275 125.557 82.9617C126.322 83.5723 127.086 84.2592 127.774 84.9461C129.149 86.3962 130.448 87.8463 131.518 89.5254C131.824 89.9834 132.053 90.365 132.206 90.8992C132.282 91.2045 132.359 91.5098 132.282 91.8151C132.282 91.9677 132.206 92.1204 132.129 92.273C132.053 92.4257 131.977 92.5783 131.824 92.6546C131.365 93.1125 130.83 93.2652 130.219 93.3415C129.684 93.3415 129.149 93.2652 128.614 93.1125C127.621 92.8073 126.704 92.273 125.939 91.6624C125.099 91.0519 124.411 90.365 123.723 89.6781L124.335 89.3728C124.335 90.136 124.335 90.8992 124.182 91.6624C124.029 92.4256 123.876 93.1125 123.647 93.8758C123.341 94.5627 123.035 95.2496 122.577 95.8601C122.118 96.4707 121.584 96.9286 120.896 97.3102C121.507 96.8523 121.966 96.3181 122.348 95.7075C122.73 95.0969 123.036 94.41 123.265 93.7231C123.494 93.0362 123.647 92.3493 123.723 91.5861C123.8 90.8992 123.8 90.136 123.723 89.4491L123.647 88.6096L124.335 89.2201C125.022 89.907 125.787 90.5176 126.551 91.0519C127.315 91.5861 128.156 92.1204 128.996 92.3493C129.837 92.5783 130.83 92.6546 131.365 92.1204C131.9 91.6624 131.442 90.7466 130.983 89.907C130.525 89.0675 129.913 88.3043 129.302 87.541C128.691 86.7778 128.079 86.0146 127.468 85.2514C126.016 83.8776 124.717 82.4275 123.036 81.4353Z" fill="#263238"/>
<path d="M113.865 97.3103L128.079 117.841C128.079 117.841 112.872 130.129 100.645 133.105C95.6009 134.326 76.2668 125.244 67.7842 119.978C59.3016 114.712 56.4741 107.308 71.4523 109.14C86.4306 110.972 97.435 113.033 98.4284 112.727C99.3455 112.422 113.865 97.3103 113.865 97.3103Z" fill="#EE5C51"/>
<path d="M62.5113 110.819C62.3585 110.896 62.2056 110.896 62.0528 110.896C61.8999 110.896 61.6707 110.896 61.5178 110.819C61.365 110.743 61.2886 110.667 61.2122 110.59C61.2886 110.514 61.365 110.438 61.4414 110.285C61.5178 110.361 61.5943 110.438 61.6707 110.514C61.8235 110.59 61.8999 110.59 62.0528 110.667C62.2056 110.743 62.3585 110.743 62.5113 110.819ZM82.5332 123.107C82.6861 123.107 82.8389 123.183 82.9153 123.26C83.1446 123.412 83.2974 123.641 83.2974 123.87C83.2974 124.252 83.5267 124.633 83.9088 124.71C84.0616 124.786 84.2909 124.786 84.4437 124.786C84.5965 124.786 84.7494 124.71 84.9022 124.71C84.7494 124.633 84.5965 124.633 84.4437 124.633C84.2909 124.633 84.138 124.557 84.0616 124.481C83.8323 124.328 83.7559 124.099 83.7559 123.87C83.7559 123.489 83.5267 123.107 83.1446 123.031C82.9917 122.954 82.7625 122.954 82.6096 123.031C82.4568 123.031 82.304 123.107 82.1511 123.107C82.2275 123.107 82.3804 123.107 82.5332 123.107ZM99.3455 123.107C99.4984 123.107 99.6512 123.183 99.7276 123.26C99.9569 123.412 100.11 123.641 100.11 123.87C100.11 124.252 100.339 124.633 100.721 124.71C100.874 124.786 101.103 124.786 101.256 124.786C101.409 124.786 101.562 124.71 101.715 124.71C101.562 124.633 101.409 124.633 101.256 124.633C101.103 124.633 100.95 124.557 100.874 124.481C100.645 124.328 100.568 124.099 100.568 123.87C100.568 123.489 100.339 123.107 99.9569 123.031C99.804 122.954 99.5748 122.954 99.4219 123.031C99.2691 123.031 99.1163 123.107 98.9634 123.107C99.0398 123.107 99.1927 123.107 99.3455 123.107ZM73.2864 110.209C73.4393 110.209 73.5921 110.285 73.6685 110.361C73.8978 110.514 74.0506 110.743 74.0506 110.972C74.0506 111.353 74.2799 111.735 74.662 111.811C74.8148 111.888 75.0441 111.888 75.1969 111.888C75.3498 111.888 75.5026 111.811 75.6555 111.811C75.5026 111.735 75.3498 111.735 75.1969 111.735C75.0441 111.735 74.8913 111.659 74.8148 111.582C74.5856 111.43 74.5092 111.201 74.5092 110.972C74.5092 110.59 74.2799 110.209 73.8978 110.132C73.745 110.056 73.5157 110.056 73.3629 110.132C73.21 110.132 73.0572 110.209 72.9044 110.209C72.9808 110.132 73.1336 110.132 73.2864 110.209ZM78.2537 118.146C78.1009 118.222 78.0245 118.299 77.8716 118.299C77.6424 118.375 77.3367 118.299 77.1838 118.146C76.9546 117.917 76.4961 117.765 76.1904 117.917C76.0375 117.993 75.8847 118.146 75.8083 118.222C75.7319 118.375 75.6555 118.451 75.579 118.604C75.7319 118.528 75.8083 118.451 75.9611 118.375C76.114 118.299 76.1904 118.222 76.3432 118.222C76.5725 118.146 76.8017 118.222 77.031 118.451C77.3367 118.68 77.7188 118.757 78.1009 118.604C78.2537 118.528 78.4066 118.375 78.483 118.299C78.5594 118.146 78.6358 118.07 78.7122 117.917C78.483 117.993 78.3301 118.07 78.2537 118.146ZM124.717 118.528C124.564 118.604 124.488 118.68 124.335 118.68C124.105 118.757 123.8 118.68 123.647 118.528C123.418 118.299 122.959 118.146 122.653 118.299C122.501 118.375 122.348 118.528 122.271 118.604C122.195 118.757 122.119 118.833 122.042 118.986C122.195 118.909 122.271 118.833 122.424 118.757C122.577 118.68 122.653 118.604 122.806 118.604C123.036 118.528 123.265 118.604 123.494 118.833C123.8 119.062 124.182 119.138 124.564 118.986C124.717 118.909 124.87 118.757 124.946 118.68C125.022 118.528 125.099 118.451 125.175 118.299C124.946 118.375 124.793 118.451 124.717 118.528ZM68.5484 116.543C68.5484 116.696 68.472 116.849 68.3956 116.925C68.2428 117.154 68.0135 117.307 67.7842 117.307C67.4021 117.307 67.02 117.536 66.9436 117.917C66.8672 118.07 66.8672 118.299 66.8672 118.451C66.8672 118.604 66.9436 118.757 66.9436 118.909C67.02 118.757 67.02 118.604 67.02 118.451C67.02 118.299 67.0965 118.146 67.1729 118.07C67.3257 117.841 67.555 117.765 67.7842 117.765C68.1663 117.765 68.5484 117.536 68.6249 117.154C68.7013 117.001 68.7013 116.772 68.6249 116.62C68.6249 116.467 68.5484 116.314 68.5484 116.162C68.6249 116.238 68.5484 116.391 68.5484 116.543ZM85.8957 112.498C85.8957 112.651 85.8193 112.804 85.7428 112.88C85.59 113.109 85.3607 113.262 85.1315 113.262C84.7494 113.262 84.3673 113.49 84.2909 113.872C84.2144 114.025 84.2144 114.254 84.2144 114.406C84.2144 114.559 84.2909 114.712 84.2909 114.864C84.3673 114.712 84.3673 114.559 84.3673 114.406C84.3673 114.254 84.4437 114.101 84.5201 114.025C84.673 113.796 84.9022 113.719 85.1315 113.719C85.5136 113.719 85.8957 113.49 85.9721 113.109C86.0485 112.956 86.0485 112.727 85.9721 112.575C85.9721 112.422 85.8957 112.269 85.8957 112.117C85.8957 112.193 85.8957 112.346 85.8957 112.498ZM92.4678 128.373C92.4678 128.526 92.3913 128.679 92.3149 128.755C92.1621 128.984 91.9328 129.136 91.7036 129.136C91.3215 129.136 90.9394 129.365 90.8629 129.747C90.7865 129.9 90.7865 130.129 90.7865 130.281C90.7865 130.434 90.8629 130.587 90.8629 130.739C90.9394 130.587 90.9394 130.434 90.9394 130.281C90.9394 130.129 91.0158 129.976 91.0922 129.9C91.245 129.671 91.4743 129.594 91.7036 129.594C92.0857 129.594 92.4678 129.365 92.5442 128.984C92.6206 128.831 92.6206 128.602 92.5442 128.45C92.5442 128.297 92.4678 128.144 92.4678 127.992C92.5442 128.068 92.5442 128.221 92.4678 128.373ZM100.492 131.579C100.645 131.502 100.721 131.426 100.874 131.426C101.103 131.35 101.409 131.426 101.562 131.579C101.791 131.808 102.249 131.96 102.555 131.808C102.708 131.731 102.861 131.579 102.937 131.502C103.014 131.35 103.09 131.273 103.166 131.121C103.014 131.197 102.937 131.273 102.784 131.35C102.632 131.426 102.555 131.502 102.402 131.502C102.173 131.579 101.944 131.502 101.715 131.273C101.409 131.045 101.027 130.968 100.645 131.121C100.492 131.197 100.339 131.35 100.263 131.426C100.186 131.579 100.11 131.655 100.033 131.808C100.263 131.731 100.339 131.655 100.492 131.579ZM90.0223 120.359C90.1752 120.283 90.2516 120.207 90.4044 120.207C90.6337 120.13 90.9394 120.207 91.0922 120.359C91.3215 120.588 91.78 120.741 92.0857 120.588C92.2385 120.512 92.3913 120.359 92.4678 120.283C92.5442 120.13 92.6206 120.054 92.697 119.902C92.5442 119.978 92.4678 120.054 92.3149 120.13C92.1621 120.207 92.0857 120.283 91.9328 120.283C91.7036 120.359 91.4743 120.283 91.245 120.054C90.9394 119.825 90.5573 119.749 90.1752 119.902C90.0223 119.978 89.8695 120.13 89.7931 120.207C89.7167 120.359 89.6402 120.436 89.5638 120.588C89.7166 120.588 89.8695 120.436 90.0223 120.359ZM104.771 107.308C104.924 107.308 105.077 107.385 105.153 107.461C105.383 107.614 105.535 107.843 105.535 108.072C105.535 108.453 105.765 108.835 106.147 108.911C106.3 108.987 106.529 108.987 106.682 108.987C106.835 108.987 106.987 108.911 107.14 108.911C106.987 108.835 106.835 108.835 106.682 108.835C106.529 108.835 106.376 108.759 106.3 108.682C106.07 108.53 105.994 108.301 105.994 108.072C105.994 107.69 105.765 107.308 105.383 107.232C105.23 107.156 105.001 107.156 104.848 107.232C104.695 107.232 104.542 107.308 104.389 107.308C104.466 107.232 104.618 107.232 104.771 107.308ZM113.942 120.13C114.094 120.13 114.247 120.207 114.324 120.283C114.553 120.436 114.706 120.665 114.706 120.894C114.706 121.275 114.935 121.657 115.317 121.733C115.47 121.81 115.699 121.81 115.852 121.81C116.005 121.81 116.158 121.733 116.311 121.733C116.158 121.657 116.005 121.657 115.852 121.657C115.699 121.657 115.546 121.581 115.47 121.504C115.241 121.352 115.164 121.123 115.164 120.894C115.164 120.512 114.935 120.13 114.553 120.054C114.4 119.978 114.171 119.978 114.018 120.054C113.865 120.054 113.712 120.13 113.56 120.13C113.636 120.054 113.789 120.054 113.942 120.13ZM121.278 111.048C121.431 111.048 121.584 111.125 121.66 111.201C121.889 111.353 122.042 111.582 122.042 111.811C122.042 112.193 122.271 112.575 122.653 112.651C122.806 112.727 123.036 112.727 123.188 112.727C123.341 112.727 123.494 112.651 123.647 112.651C123.494 112.575 123.341 112.575 123.188 112.575C123.036 112.575 122.883 112.498 122.806 112.422C122.577 112.269 122.501 112.04 122.501 111.811C122.501 111.43 122.271 111.048 121.889 110.972C121.736 110.896 121.507 110.896 121.354 110.972C121.202 110.972 121.049 111.048 120.896 111.048C120.972 111.048 121.125 111.048 121.278 111.048ZM114.782 110.972C114.782 111.125 114.706 111.277 114.629 111.353C114.477 111.582 114.247 111.735 114.018 111.735C113.636 111.735 113.254 111.964 113.177 112.346C113.101 112.498 113.101 112.727 113.101 112.88C113.101 113.033 113.177 113.185 113.177 113.338C113.254 113.185 113.254 113.033 113.254 112.88C113.254 112.727 113.33 112.575 113.407 112.498C113.56 112.269 113.789 112.193 114.018 112.193C114.4 112.193 114.782 111.964 114.859 111.582C114.935 111.43 114.935 111.201 114.859 111.048C114.859 110.896 114.782 110.743 114.782 110.59C114.782 110.667 114.782 110.819 114.782 110.972ZM98.2756 113.643C98.2756 113.796 98.1992 113.948 98.1228 114.025C97.97 114.254 97.7407 114.406 97.5114 114.406C97.1293 114.406 96.7472 114.635 96.6708 115.017C96.5944 115.17 96.5944 115.399 96.5944 115.551C96.5944 115.704 96.6708 115.856 96.6708 116.009C96.7472 115.856 96.7472 115.704 96.7472 115.551C96.7472 115.399 96.8237 115.246 96.9001 115.17C97.0529 114.941 97.2822 114.864 97.5114 114.864C97.8935 114.864 98.2756 114.635 98.3521 114.254C98.4285 114.101 98.4285 113.872 98.3521 113.719C98.3521 113.567 98.2756 113.414 98.2756 113.262C98.3521 113.338 98.3521 113.49 98.2756 113.643ZM109.739 126.16C109.739 126.313 109.662 126.465 109.586 126.542C109.433 126.77 109.204 126.923 108.974 126.923C108.592 126.923 108.21 127.152 108.134 127.534C108.057 127.686 108.057 127.915 108.057 128.068C108.057 128.221 108.134 128.373 108.134 128.526C108.21 128.373 108.21 128.221 108.21 128.068C108.21 127.915 108.287 127.763 108.363 127.686C108.516 127.457 108.745 127.381 108.974 127.381C109.356 127.381 109.739 127.152 109.815 126.77C109.891 126.618 109.891 126.389 109.815 126.236C109.815 126.084 109.739 125.931 109.739 125.778C109.815 125.855 109.815 126.007 109.739 126.16ZM112.872 102.424C113.025 102.347 113.101 102.271 113.254 102.271C113.483 102.195 113.789 102.271 113.942 102.424C114.171 102.653 114.629 102.805 114.935 102.653C115.088 102.576 115.241 102.424 115.317 102.347C115.394 102.195 115.47 102.119 115.546 101.966C115.394 102.042 115.317 102.119 115.164 102.195C115.012 102.271 114.935 102.347 114.782 102.347C114.553 102.424 114.324 102.347 114.094 102.119C113.789 101.89 113.407 101.813 113.025 101.966C112.872 102.042 112.719 102.195 112.643 102.271C112.566 102.424 112.49 102.5 112.413 102.653C112.643 102.653 112.719 102.576 112.872 102.424ZM104.466 118.986C104.618 118.909 104.695 118.833 104.848 118.833C105.077 118.757 105.383 118.833 105.535 118.986C105.765 119.215 106.223 119.367 106.529 119.215C106.682 119.138 106.835 118.986 106.911 118.909C106.987 118.757 107.064 118.68 107.14 118.528C106.987 118.604 106.911 118.68 106.758 118.757C106.605 118.833 106.529 118.909 106.376 118.909C106.147 118.986 105.918 118.909 105.688 118.68C105.383 118.451 105.001 118.375 104.618 118.528C104.466 118.604 104.313 118.757 104.236 118.833C104.16 118.986 104.084 119.062 104.007 119.215C104.236 119.138 104.389 119.062 104.466 118.986Z" fill="white"/>
<path d="M111.343 102.5C112.031 103.95 112.948 105.4 113.865 106.774C114.782 108.224 115.699 109.674 116.616 111.124C117.533 112.575 121.431 118.222 122.424 119.596C122.501 119.673 122.577 119.596 122.501 119.52C121.583 118.07 118.145 112.193 117.228 110.819C116.311 109.445 115.394 107.995 114.476 106.621C113.407 105.248 112.49 103.798 111.343 102.5C111.42 102.424 111.343 102.424 111.343 102.5Z" fill="#263238"/>
<path d="M91.8563 131.426C83.9851 128.755 73.3628 123.489 67.7077 119.902C62.2819 116.543 59.2252 112.269 61.5178 110.132C61.6706 110.056 61.747 109.98 61.747 109.98L91.8563 131.426Z" fill="#263238"/>
<path d="M69.8473 165.923C68.9303 166.534 25.9825 155.391 25.8297 155.009C25.3712 154.094 48.6027 111.43 61.2119 105.782C63.8866 104.561 70.4587 107.537 71.7578 109.522C72.5984 110.743 73.2862 117.688 73.6683 123.336C74.3561 134.708 70.6115 165.389 69.8473 165.923Z" fill="#EE5C51"/>
<path d="M51.1247 123.26C51.2775 123.183 51.4303 123.183 51.5832 123.183C51.736 123.183 51.9653 123.183 52.1181 123.183C52.5002 123.336 52.7295 123.641 52.7295 124.023C52.7295 124.252 52.8823 124.481 53.0352 124.633C53.1116 124.71 53.2644 124.71 53.4173 124.786C53.5701 124.786 53.7229 124.862 53.8758 124.862C53.7229 124.939 53.5701 124.939 53.4173 124.939C53.2644 124.939 53.0352 124.939 52.8823 124.862C52.5766 124.71 52.271 124.328 52.271 124.023C52.271 123.794 52.1181 123.565 51.8889 123.412C51.8124 123.336 51.6596 123.336 51.5068 123.26C51.4303 123.336 51.2775 123.336 51.1247 123.26ZM60.0658 153.636C60.2186 153.636 60.3714 153.712 60.4478 153.788C60.6771 153.941 60.8299 154.17 60.8299 154.399C60.8299 154.781 61.0592 155.162 61.4413 155.238C61.5941 155.315 61.8234 155.315 61.9762 155.315C62.1291 155.315 62.2819 155.238 62.4348 155.238C62.2819 155.162 62.1291 155.162 61.9762 155.162C61.8234 155.162 61.6706 155.086 61.5941 155.01C61.3649 154.857 61.2885 154.628 61.2885 154.399C61.2885 154.017 61.0592 153.636 60.6771 153.559C60.5243 153.483 60.295 153.483 60.1422 153.559C59.9893 153.559 59.8365 153.636 59.6837 153.636C59.7601 153.559 59.9129 153.559 60.0658 153.636ZM70.6116 125.015C70.7645 125.015 70.9173 125.091 70.9937 125.168C71.223 125.32 71.3758 125.549 71.3758 125.778C71.3758 126.16 71.6051 126.541 71.9872 126.618C72.14 126.694 72.3693 126.694 72.5221 126.694C72.675 126.694 72.8278 126.618 72.9807 126.618C72.8278 126.541 72.675 126.541 72.5221 126.541C72.3693 126.541 72.2165 126.465 72.14 126.389C71.9108 126.236 71.8344 126.007 71.8344 125.778C71.8344 125.397 71.6051 125.015 71.223 124.939C71.0702 124.862 70.8409 124.862 70.6881 124.939C70.5352 124.939 70.3824 125.015 70.2296 125.015C70.306 124.939 70.4588 124.939 70.6116 125.015ZM60.2186 109.293C60.3714 109.293 60.5243 109.369 60.6007 109.445C60.83 109.598 60.9828 109.827 60.9828 110.056C60.9828 110.438 61.212 110.819 61.5941 110.895C61.747 110.972 61.9762 110.972 62.1291 110.972C62.2819 110.972 62.4348 110.895 62.5876 110.895C62.4348 110.819 62.2819 110.819 62.1291 110.819C61.9762 110.819 61.8234 110.743 61.747 110.667C61.5177 110.514 61.4413 110.285 61.4413 110.056C61.4413 109.674 61.212 109.293 60.8299 109.216C60.6771 109.14 60.4479 109.14 60.295 109.216C60.1422 109.216 59.9893 109.293 59.8365 109.293C59.9129 109.216 60.0658 109.216 60.2186 109.293ZM39.5853 136.005C39.7382 136.005 39.891 136.082 39.9674 136.158C40.1967 136.311 40.3495 136.54 40.3495 136.769C40.3495 137.15 40.5788 137.532 40.9609 137.608C41.1137 137.684 41.343 137.684 41.4958 137.684C41.6486 137.684 41.8015 137.608 41.9543 137.608C41.8015 137.532 41.6486 137.532 41.4958 137.532C41.343 137.532 41.1901 137.455 41.1137 137.379C40.8844 137.227 40.808 136.998 40.808 136.769C40.808 136.387 40.5788 136.005 40.1967 135.929C40.0438 135.853 39.8146 135.853 39.6617 135.929C39.5089 135.929 39.3561 136.005 39.2032 136.005C39.2796 136.005 39.4325 136.005 39.5853 136.005ZM48.7557 148.827C48.9085 148.827 49.0613 148.904 49.1378 148.98C49.367 149.133 49.5199 149.362 49.5199 149.591C49.5199 149.972 49.7491 150.354 50.1312 150.43C50.284 150.507 50.5133 150.507 50.6662 150.507C50.819 150.507 50.9718 150.43 51.1247 150.43C50.9718 150.354 50.819 150.354 50.6662 150.354C50.5133 150.354 50.3605 150.278 50.2841 150.201C50.0548 150.049 49.9784 149.82 49.9784 149.591C49.9784 149.209 49.7491 148.827 49.367 148.751C49.2142 148.675 48.9849 148.675 48.8321 148.751C48.6792 148.751 48.5264 148.827 48.3736 148.827C48.45 148.827 48.6028 148.827 48.7557 148.827ZM32.249 151.575C32.4019 151.575 32.5547 151.651 32.6311 151.728C32.8604 151.88 33.0132 152.109 33.0132 152.338C33.0132 152.72 33.2425 153.101 33.6246 153.178C33.7774 153.254 34.0067 153.254 34.1595 153.254C34.3124 153.254 34.4652 153.178 34.618 153.178C34.4652 153.101 34.3124 153.101 34.1595 153.101C34.0067 153.101 33.8539 153.025 33.7774 152.949C33.5482 152.796 33.4718 152.567 33.4718 152.338C33.4718 151.957 33.2425 151.575 32.8604 151.499C32.7076 151.422 32.4783 151.422 32.3255 151.499C32.1726 151.499 32.0198 151.575 31.8669 151.575C31.9434 151.499 32.0962 151.499 32.249 151.575ZM56.3212 136.387C56.474 136.387 56.6269 136.463 56.7033 136.54C56.9325 136.692 57.0854 136.921 57.0854 137.15C57.0854 137.532 57.3146 137.913 57.6967 137.99C57.8496 138.066 58.0788 138.066 58.2317 138.066C58.3845 138.066 58.5374 137.99 58.6902 137.99C58.5374 137.913 58.3845 137.913 58.2317 137.913C58.0788 137.913 57.926 137.837 57.8496 137.761C57.6203 137.608 57.5439 137.379 57.5439 137.15C57.5439 136.769 57.3146 136.387 56.9326 136.311C56.7797 136.234 56.5505 136.234 56.3976 136.311C56.2448 136.311 56.0919 136.387 55.9391 136.387C56.0155 136.311 56.1684 136.387 56.3212 136.387ZM69.0833 144.324C69.2361 144.324 69.3889 144.401 69.4654 144.477C69.6946 144.63 69.8475 144.859 69.8475 145.088C69.8475 145.469 70.0767 145.851 70.4588 145.927C70.6116 146.004 70.8409 146.004 70.9937 146.004C71.1466 146.004 71.2994 145.927 71.4523 145.927C71.2994 145.851 71.1466 145.851 70.9937 145.851C70.8409 145.851 70.6881 145.775 70.6116 145.698C70.3824 145.546 70.306 145.317 70.306 145.088C70.306 144.706 70.0767 144.324 69.6946 144.248C69.5418 144.172 69.3125 144.172 69.1597 144.248C69.0068 144.248 68.854 144.324 68.7012 144.324C68.7776 144.248 68.9304 144.324 69.0833 144.324ZM69.0068 136.158C68.854 136.234 68.7776 136.311 68.6247 136.311C68.3955 136.387 68.0898 136.311 67.937 136.158C67.7077 135.929 67.2492 135.776 66.9435 135.929C66.7907 136.005 66.6378 136.158 66.5614 136.234C66.485 136.387 66.4086 136.463 66.3322 136.616C66.485 136.54 66.5614 136.463 66.7143 136.387C66.8671 136.311 66.9435 136.234 67.0964 136.234C67.3256 136.158 67.5549 136.234 67.7841 136.463C68.0898 136.692 68.4719 136.769 68.854 136.616C69.0068 136.54 69.1597 136.387 69.2361 136.311C69.3125 136.158 69.3889 136.082 69.4654 135.929C69.2361 136.005 69.0833 136.082 69.0068 136.158ZM53.3408 112.956C53.3408 113.109 53.2644 113.261 53.188 113.338C53.0352 113.567 52.8059 113.719 52.5766 113.719C52.1945 113.719 51.8124 113.948 51.736 114.33C51.6596 114.483 51.6596 114.712 51.6596 114.864C51.6596 115.017 51.736 115.17 51.736 115.322C51.8124 115.17 51.8124 115.017 51.8124 114.864C51.8124 114.712 51.8889 114.559 51.9653 114.483C52.1181 114.254 52.3474 114.177 52.5766 114.177C52.9587 114.177 53.3408 113.948 53.4173 113.567C53.4937 113.414 53.4937 113.185 53.4173 113.033C53.4173 112.88 53.3408 112.727 53.3408 112.575C53.4173 112.651 53.3408 112.804 53.3408 112.956ZM49.5963 139.745C49.5963 139.898 49.5199 140.05 49.4434 140.127C49.2906 140.356 49.0613 140.508 48.8321 140.508C48.45 140.508 48.0679 140.737 47.9915 141.119C47.915 141.272 47.915 141.501 47.915 141.653C47.915 141.806 47.9915 141.958 47.9915 142.111C48.0679 141.958 48.0679 141.806 48.0679 141.653C48.0679 141.501 48.1443 141.348 48.2207 141.272C48.3736 141.043 48.6028 140.966 48.8321 140.966C49.2142 140.966 49.5963 140.737 49.6727 140.356C49.7491 140.203 49.7491 139.974 49.6727 139.821C49.6727 139.669 49.5963 139.516 49.5963 139.364C49.5963 139.44 49.5963 139.593 49.5963 139.745ZM68.5483 116.543C68.5483 116.696 68.4719 116.849 68.3955 116.925C68.2426 117.154 68.0134 117.307 67.7841 117.307C67.402 117.307 67.0199 117.535 66.9435 117.917C66.8671 118.07 66.8671 118.299 66.8671 118.451C66.8671 118.604 66.9435 118.757 66.9435 118.909C67.0199 118.757 67.0199 118.604 67.0199 118.451C67.0199 118.299 67.0964 118.146 67.1728 118.07C67.3256 117.841 67.5549 117.764 67.7841 117.764C68.1662 117.764 68.5483 117.535 68.6247 117.154C68.7012 117.001 68.7012 116.772 68.6247 116.62C68.6247 116.467 68.5483 116.314 68.5483 116.162C68.6247 116.238 68.5483 116.391 68.5483 116.543ZM68.5483 159.741C68.5483 159.894 68.4719 160.047 68.3955 160.123C68.2426 160.352 68.0134 160.505 67.7841 160.505C67.402 160.505 67.0199 160.734 66.9435 161.115C66.8671 161.268 66.8671 161.497 66.8671 161.65C66.8671 161.802 66.9435 161.955 66.9435 162.107C67.0199 161.955 67.0199 161.802 67.0199 161.65C67.0199 161.497 67.0964 161.344 67.1728 161.268C67.3256 161.039 67.5549 160.963 67.7841 160.963C68.1662 160.963 68.5483 160.734 68.6247 160.352C68.7012 160.199 68.7012 159.97 68.6247 159.818C68.6247 159.665 68.5483 159.513 68.5483 159.36C68.6247 159.436 68.5483 159.589 68.5483 159.741ZM34.6945 140.661C34.6945 140.814 34.618 140.966 34.5416 141.043C34.3888 141.272 34.1595 141.424 33.9303 141.424C33.5482 141.424 33.1661 141.653 33.0897 142.035C33.0132 142.187 33.0132 142.416 33.0132 142.569C33.0132 142.722 33.0897 142.874 33.0897 143.027C33.1661 142.874 33.1661 142.722 33.1661 142.569C33.1661 142.416 33.2425 142.264 33.3189 142.187C33.4718 141.958 33.701 141.882 33.9303 141.882C34.3124 141.882 34.6945 141.653 34.7709 141.272C34.8473 141.119 34.8473 140.89 34.7709 140.737C34.7709 140.585 34.6945 140.432 34.6945 140.279C34.7709 140.356 34.7709 140.508 34.6945 140.661ZM63.199 128.373C63.199 128.526 63.1225 128.678 63.0461 128.755C62.8933 128.984 62.664 129.136 62.4348 129.136C62.0527 129.136 61.6706 129.365 61.5941 129.747C61.5177 129.9 61.5177 130.129 61.5177 130.281C61.5177 130.434 61.5941 130.587 61.5941 130.739C61.6706 130.587 61.6706 130.434 61.6706 130.281C61.6706 130.129 61.747 129.976 61.8234 129.9C61.9762 129.671 62.2055 129.594 62.4348 129.594C62.8169 129.594 63.199 129.365 63.2754 128.984C63.3518 128.831 63.3518 128.602 63.2754 128.45C63.2754 128.297 63.199 128.144 63.199 127.992C63.2754 128.068 63.2754 128.221 63.199 128.373ZM43.6356 125.778C43.6356 125.931 43.5591 126.084 43.4827 126.16C43.3299 126.389 43.1006 126.541 42.8714 126.541C42.4893 126.541 42.1072 126.77 42.0307 127.152C41.9543 127.305 41.9543 127.534 41.9543 127.686C41.9543 127.839 42.0307 127.992 42.0307 128.144C42.1072 127.992 42.1072 127.839 42.1072 127.686C42.1072 127.534 42.1836 127.381 42.26 127.305C42.4128 127.076 42.6421 126.999 42.8714 126.999C43.2535 126.999 43.6356 126.77 43.712 126.389C43.7884 126.236 43.7884 126.007 43.712 125.855C43.712 125.702 43.6356 125.549 43.6356 125.397C43.6356 125.473 43.6356 125.626 43.6356 125.778ZM43.6356 155.62C43.6356 155.773 43.5591 155.925 43.4827 156.002C43.3299 156.231 43.1006 156.383 42.8714 156.383C42.4893 156.383 42.1072 156.612 42.0307 156.994C41.9543 157.147 41.9543 157.375 41.9543 157.528C41.9543 157.681 42.0307 157.833 42.0307 157.986C42.1072 157.833 42.1072 157.681 42.1072 157.528C42.1072 157.375 42.1836 157.223 42.26 157.147C42.4128 156.918 42.6421 156.841 42.8714 156.841C43.2535 156.841 43.6356 156.612 43.712 156.231C43.7884 156.078 43.7884 155.849 43.712 155.696C43.712 155.544 43.6356 155.391 43.6356 155.238C43.6356 155.315 43.6356 155.467 43.6356 155.62ZM58.7666 119.596C58.9195 119.52 58.9959 119.444 59.1487 119.444C59.378 119.367 59.6837 119.444 59.8365 119.596C60.0658 119.825 60.5243 119.978 60.8299 119.825C60.9828 119.749 61.1356 119.596 61.212 119.52C61.2885 119.367 61.3649 119.291 61.4413 119.138C61.2885 119.215 61.212 119.291 61.0592 119.367C60.9064 119.444 60.8299 119.52 60.6771 119.52C60.4479 119.596 60.2186 119.52 59.9893 119.291C59.6837 119.062 59.3016 118.986 58.9195 119.138C58.7666 119.215 58.6138 119.367 58.5374 119.444C58.4609 119.596 58.3845 119.673 58.3081 119.825C58.5374 119.749 58.6902 119.673 58.7666 119.596ZM47.6858 131.197C47.8386 131.121 47.915 131.044 48.0679 131.044C48.2971 130.968 48.6028 131.044 48.7557 131.197C48.9849 131.426 49.4434 131.579 49.7491 131.426C49.902 131.35 50.0548 131.197 50.1312 131.121C50.2076 130.968 50.2841 130.892 50.3605 130.739C50.2076 130.815 50.1312 130.892 49.9784 130.968C49.8255 131.044 49.7491 131.121 49.5963 131.121C49.367 131.197 49.1378 131.121 48.9085 130.892C48.6028 130.663 48.2207 130.587 47.8386 130.739C47.6858 130.815 47.5329 130.968 47.4565 131.044C47.3801 131.197 47.3037 131.273 47.2273 131.426C47.4565 131.35 47.5329 131.273 47.6858 131.197ZM39.2796 147.683C39.4325 147.606 39.5089 147.53 39.6617 147.53C39.891 147.454 40.1967 147.53 40.3495 147.683C40.5788 147.912 41.0373 148.064 41.343 147.912C41.4958 147.835 41.6486 147.683 41.7251 147.606C41.8015 147.454 41.8779 147.377 41.9543 147.225C41.8015 147.301 41.7251 147.377 41.5722 147.454C41.4194 147.53 41.343 147.606 41.1901 147.606C40.9609 147.683 40.7316 147.606 40.5024 147.377C40.1967 147.148 39.8146 147.072 39.4325 147.225C39.2796 147.301 39.1268 147.454 39.0504 147.53C38.974 147.683 38.8975 147.759 38.8211 147.912C39.0504 147.912 39.1268 147.759 39.2796 147.683ZM59.1487 146.004C59.3016 145.927 59.378 145.851 59.5308 145.851C59.7601 145.775 60.0658 145.851 60.2186 146.004C60.4479 146.233 60.9064 146.385 61.212 146.233C61.3649 146.156 61.5177 146.004 61.5941 145.927C61.6706 145.775 61.747 145.698 61.8234 145.546C61.6706 145.622 61.5941 145.698 61.4413 145.775C61.2885 145.851 61.212 145.927 61.0592 145.927C60.8299 146.004 60.6007 145.927 60.3714 145.698C60.0658 145.469 59.6837 145.393 59.3016 145.546C59.1487 145.622 58.9959 145.775 58.9195 145.851C58.843 146.004 58.7666 146.08 58.6902 146.233C58.9195 146.156 59.0723 146.08 59.1487 146.004ZM51.5068 158.062C51.6596 157.986 51.736 157.91 51.8889 157.91C52.1181 157.833 52.4238 157.91 52.5766 158.062C52.8059 158.291 53.2644 158.444 53.5701 158.291C53.7229 158.215 53.8758 158.062 53.9522 157.986C54.0286 157.833 54.105 157.757 54.1814 157.604C54.0286 157.681 53.9522 157.757 53.7994 157.833C53.6465 157.91 53.5701 157.986 53.4173 157.986C53.188 158.062 52.9587 157.986 52.7295 157.757C52.4238 157.528 52.0417 157.452 51.6596 157.604C51.5068 157.681 51.3539 157.833 51.2775 157.91C51.2011 158.062 51.1247 158.139 51.0482 158.291C51.2775 158.215 51.4303 158.139 51.5068 158.062ZM71.8344 152.72C71.7579 152.72 71.6815 152.644 71.6051 152.567C71.3758 152.262 70.9173 152.186 70.6116 152.415C70.4588 152.491 70.306 152.644 70.2296 152.72C70.1531 152.873 70.0767 152.949 70.0003 153.101C70.1531 153.025 70.2295 152.949 70.3824 152.873C70.5352 152.796 70.6116 152.72 70.7645 152.72C70.9937 152.644 71.2994 152.72 71.4523 152.873C71.6051 153.025 71.7579 153.101 71.9108 153.101L71.8344 152.72Z" fill="white"/>
<path d="M69.8474 114.254C69.5417 118.528 69.1596 122.802 68.7775 127.076C68.3954 131.35 67.9369 135.624 67.4784 139.898C67.0199 144.172 66.5614 148.446 66.0264 152.72L65.2622 159.131C64.9566 161.268 64.7273 163.405 64.4216 165.542C64.5745 163.405 64.7273 161.268 64.8801 159.131L65.4915 152.72C65.8736 148.446 66.3321 144.172 66.7906 139.898C67.2492 135.624 67.7077 131.35 68.2426 127.076C68.7775 122.802 69.3125 118.528 69.8474 114.254Z" fill="#263238"/>
<path d="M71.6815 127.686C71.6051 128.144 71.223 128.449 70.8409 128.449C70.3823 128.373 70.0767 127.992 70.0767 127.61C70.1531 127.152 70.5352 126.847 70.9173 126.847C71.3758 126.847 71.6815 127.228 71.6815 127.686Z" fill="#263238"/>
<path d="M70.6116 135.929C70.5352 136.387 70.1531 136.692 69.771 136.692C69.3125 136.616 69.0068 136.234 69.0068 135.853C69.0833 135.395 69.4654 135.089 69.8474 135.089C70.306 135.089 70.6881 135.471 70.6116 135.929Z" fill="#263238"/>
<path d="M69.5416 144.172C69.4652 144.63 69.0831 144.935 68.701 144.935C68.2424 144.859 67.9368 144.477 67.9368 144.095C68.0132 143.638 68.3953 143.332 68.7774 143.332C69.3123 143.332 69.618 143.714 69.5416 144.172Z" fill="#263238"/>
<path d="M68.5482 152.414C68.4717 152.872 68.0897 153.178 67.7076 153.178C67.249 153.101 66.9434 152.72 66.9434 152.338C67.0198 151.88 67.4019 151.575 67.784 151.575C68.2425 151.575 68.5482 151.957 68.5482 152.414Z" fill="#263238"/>
<path d="M67.4784 160.657C67.4019 161.115 67.0198 161.42 66.6377 161.42C66.2556 161.42 65.8735 160.962 65.8735 160.581C65.95 160.123 66.3321 159.818 66.7142 159.818C67.1727 159.818 67.5548 160.199 67.4784 160.657Z" fill="#263238"/>
<path d="M67.7078 115.017C65.0331 114.788 61.8999 109.598 61.2121 105.935C61.1357 105.706 62.2056 103.569 63.3519 100.897C64.0396 99.2947 64.7274 97.463 65.3388 95.7839L75.2733 101.813C75.2733 101.813 73.0571 105.095 72.1401 108.072C72.0637 108.301 71.9873 108.53 71.9873 108.759C71.9873 108.759 71.9873 108.835 71.9873 108.911C71.6816 110.209 70.306 115.17 67.7078 115.017Z" fill="#D3766A"/>
<path d="M65.721 96.0129C65.4153 98.2263 64.5747 106.393 70.7647 108.53C71.1468 108.682 71.5289 108.759 71.911 108.835C71.911 108.759 71.911 108.759 71.911 108.682C71.911 108.453 71.9874 108.224 72.0638 107.995C72.9808 105.019 75.197 101.737 75.197 101.737L65.721 96.0129Z" fill="#263238"/>
<path d="M65.568 85.0224C63.8868 88.8385 64.7274 100.516 67.2493 103.416C70.9174 107.537 77.5659 108.682 81.3105 104.103C84.9022 99.6762 83.5266 84.4882 80.6991 81.8169C76.4196 77.8482 68.0135 79.3746 65.568 85.0224Z" fill="#D3766A"/>
<path d="M75.8846 93.189C75.8846 94.0285 75.8846 94.9444 75.1968 95.2497V95.326C76.0374 95.1733 76.1138 93.9522 75.8846 93.189Z" fill="#263238"/>
<path d="M75.1969 92.4258C73.8978 92.4258 73.9742 94.9444 75.1969 94.9444C76.2668 95.0207 76.1903 92.4258 75.1969 92.4258Z" fill="#263238"/>
<path d="M80.317 93.1125C80.3934 93.9521 80.4699 94.868 81.2341 95.0969V95.1732C80.317 95.0969 80.1642 93.8758 80.317 93.1125Z" fill="#263238"/>
<path d="M81.0048 92.2731C82.3039 92.1204 82.4568 94.7154 81.2341 94.7917C80.0878 94.9443 79.9349 92.4257 81.0048 92.2731Z" fill="#263238"/>
<path d="M74.1269 91.2809C74.509 91.2046 74.7383 91.0519 75.1204 90.8993C75.5025 90.7467 75.8082 90.6703 76.0374 90.365C76.1903 90.2124 76.1138 89.8308 75.961 89.6781C75.5789 89.3729 75.044 89.4492 74.5854 89.6018C74.1269 89.7545 73.7448 90.0598 73.4392 90.4414C73.2099 90.8993 73.6684 91.4335 74.1269 91.2809Z" fill="#263238"/>
<path d="M81.9216 90.9756C81.5395 90.8992 81.2338 90.8229 80.9282 90.7466C80.5461 90.6703 80.2404 90.5939 79.9347 90.2887C79.7819 90.136 79.7819 89.8307 79.9347 89.6018C80.2404 89.2202 80.7753 89.2202 81.2338 89.2965C81.7688 89.3728 82.1509 89.6018 82.4565 89.9834C82.7622 90.4413 82.3801 91.0519 81.9216 90.9756Z" fill="#263238"/>
<path d="M75.1204 100.592C75.3496 100.745 75.5025 101.05 75.8082 101.05C76.1138 101.05 76.4195 100.897 76.6488 100.821C76.6488 100.821 76.7252 100.821 76.6488 100.897C76.4195 101.203 76.0374 101.432 75.6553 101.355C75.3496 101.203 75.1968 100.897 75.1204 100.592C75.1204 100.516 75.044 100.592 75.1204 100.592Z" fill="#263238"/>
<path d="M75.8845 98.1498C76.343 98.8367 77.0308 99.142 77.7186 99.2946C78.0243 99.371 78.3299 99.371 78.712 99.2946C78.7885 99.2946 78.8649 99.2946 78.8649 99.2946C78.9413 99.2946 78.9413 99.2946 79.0177 99.2946C79.0941 99.2946 79.1706 99.2183 79.1706 99.142V99.0657V98.9894C79.1706 98.3788 79.0941 97.4629 79.0941 97.4629C79.3234 97.5392 80.4697 98.0735 80.4697 97.7682C80.2404 95.1733 80.0112 92.273 79.247 89.6781C79.247 89.6018 79.0941 89.6018 79.0941 89.6781C79.247 92.1967 79.7819 94.7153 79.9348 97.234C79.5527 97.0813 78.9413 96.8523 78.6356 96.8523C78.5592 96.8523 78.8649 98.6078 78.7885 98.913C77.795 99.0657 77.0308 98.7604 75.8845 98.1498Z" fill="#263238"/>
<path d="M78.2535 99.2184C78.2535 99.2184 77.6421 99.9053 76.9544 100.134C76.6487 100.211 76.4194 100.211 76.1137 100.134C75.5024 99.9053 75.5024 99.3711 75.6552 98.9131C75.8081 98.5315 75.9609 98.1499 75.9609 98.1499C75.9609 98.1499 76.8015 98.9894 78.2535 99.2184Z" fill="#263238"/>
<path d="M76.9544 100.058C76.6487 100.134 76.4194 100.134 76.1137 100.058C75.5024 99.8291 75.5024 99.2948 75.6552 98.8369C76.2666 98.9132 76.8779 99.4475 76.9544 100.058Z" fill="#F291B8"/>
<path d="M82.6096 86.3962C78.7886 89.2201 73.2099 85.404 73.2099 85.404C72.0637 88.5332 69.0069 88.3043 69.0069 88.3043C69.0069 88.3043 68.5484 95.0206 66.7907 95.0206C64.116 95.0969 62.8933 86.0909 63.6575 84.2592C64.4217 82.4275 66.7143 81.8932 66.7143 81.8932C66.7143 81.8932 66.7907 80.5194 68.3955 79.1457C70.1532 77.6955 76.5724 79.2983 76.5724 79.2983C76.5724 79.2983 76.9545 78.0772 78.1008 77.085C78.7886 76.3981 79.8584 76.4744 80.4698 77.2376C80.1641 77.6955 80.0113 78.2298 79.9349 78.9167C79.7056 80.9011 81.3104 80.8247 81.234 79.0693C81.1576 78.3061 80.9283 77.6955 80.5462 77.3139C81.3104 76.0928 82.5331 75.7112 83.3737 76.2454C84.7493 77.2376 85.8192 84.0303 82.6096 86.3962Z" fill="#263238"/>
<path d="M67.7842 94.3338C67.7842 94.3338 65.4916 90.365 63.7339 91.1282C61.9763 91.8915 63.4283 97.463 65.3388 98.3788C67.2492 99.2947 68.1663 97.5393 68.1663 97.5393L67.7842 94.3338Z" fill="#D3766A"/>
<path d="M64.1924 92.731C65.4915 93.4942 66.1029 94.7916 66.485 96.1654C66.1029 95.6312 65.568 95.2496 64.8802 95.7075C64.8038 95.7075 64.8802 95.7838 64.8802 95.7838C65.4915 95.7075 65.8736 95.8602 66.1793 96.3181C66.4086 96.6997 66.5614 97.0813 66.7143 97.4629C66.7907 97.6156 67.0199 97.5392 66.9435 97.3866C67.2492 95.6312 66.1029 93.0362 64.1924 92.731Z" fill="#263238"/>
<path d="M71.8343 108.835L69.5418 113.948L61.4413 104.942L58.9194 107.385C58.9194 107.385 65.6444 121.275 65.7208 120.665L69.6946 115.322L72.4457 119.596L73.057 111.277L71.8343 108.835Z" fill="#EE5C51"/>
<path d="M73.0569 114.712C73.1334 113.109 73.2098 112.956 73.2098 111.353C73.2098 111.277 73.1334 111.277 73.1334 111.353C72.6748 112.88 72.522 117.612 72.3692 119.062C72.2163 118.909 69.8473 115.246 69.8473 115.322C69.1595 116.162 66.0263 120.054 65.8735 120.436C64.8036 118.222 60.7534 110.209 59.4543 108.072C59.4543 107.995 59.3014 108.072 59.3778 108.148C60.2949 110.438 65.6442 121.275 65.7971 121.275C65.8735 121.352 69.5416 116.543 69.9237 115.628C70.4587 116.391 72.8277 120.436 72.8277 120.207C72.8277 118.451 72.9805 116.314 73.0569 114.712Z" fill="#263238"/>
<path d="M114.17 178.257L108.138 176.064L61.3293 304.514L67.3615 306.706L114.17 178.257Z" fill="#DBDBDB"/>
<path d="M114.094 178.288L110.503 188.21L103.931 187.446L108.134 176.074L114.094 178.288Z" fill="#A6A6A6"/>
<path d="M125.644 152.943L115.519 149.263L104.307 180.031L114.432 183.711L125.644 152.943Z" fill="#EE5C51"/>
<path d="M109.891 326.123H21.6267L25.4477 319.178H106.07L109.891 326.123Z" fill="#263238"/>
<path d="M99.269 322.918H32.3254C32.3254 322.918 36.987 295.06 65.7972 295.06C94.6074 295.06 99.269 322.918 99.269 322.918Z" fill="#A6A6A6"/>
<path d="M84.8257 322.918H46.7688C46.7688 322.918 49.4435 307.043 65.7973 307.043C82.151 307.043 84.8257 322.918 84.8257 322.918Z" fill="#C7C7C7"/>
<path d="M51.8888 121.123C51.3539 127.305 52.1181 154.17 54.7164 158.52C59.3015 166.458 84.1379 177.143 89.9458 179.204C92.4676 180.119 101.103 159.971 98.5047 158.826C96.7471 158.062 72.9806 150.507 71.4522 149.056C69.9238 147.53 63.8103 129.136 61.5177 119.062C59.1487 109.522 53.0351 107.995 51.8888 121.123Z" fill="#D3766A"/>
<path d="M121.66 165.542C121.966 167.832 119.826 168.824 119.826 168.824C119.826 168.824 121.049 170.198 120.972 171.953C120.896 173.937 117.686 174.701 117.686 174.701C117.686 174.701 118.603 176.303 118.374 178.135C118.068 180.043 115.011 181.264 115.011 181.264C115.011 181.264 115.088 183.249 113.712 184.699C111.343 187.141 106.3 186.072 103.09 185.386C99.8803 184.699 91.3978 179.89 89.6401 179.127L93.614 158.444C93.614 158.444 108.898 157.299 112.566 158.597C115.623 159.589 121.354 162.947 121.66 165.542Z" fill="#D3766A"/>
<path d="M119.749 168.442C116.769 166.458 113.33 165.542 109.968 164.397C109.891 164.397 109.891 164.473 109.891 164.55C113.254 165.618 116.31 167.45 119.673 168.671C119.826 168.595 119.902 168.442 119.749 168.442Z" fill="#263238"/>
<path d="M117.686 174.319C116.998 173.861 116.158 173.708 115.393 173.479C114.553 173.25 113.712 173.021 112.871 172.792C111.19 172.334 109.509 171.953 107.828 171.647C107.751 171.647 107.675 171.724 107.751 171.8C109.433 172.258 111.114 172.64 112.719 173.174C113.559 173.403 114.4 173.708 115.164 173.937C115.928 174.166 116.692 174.471 117.533 174.548C117.762 174.548 117.839 174.395 117.686 174.319Z" fill="#263238"/>
<path d="M114.935 181.188C114.324 180.806 113.483 180.73 112.795 180.577C112.031 180.425 111.267 180.196 110.503 180.043C108.974 179.661 107.446 179.28 105.917 178.898C105.841 178.898 105.765 178.975 105.841 179.051C107.369 179.509 108.898 179.967 110.503 180.348C111.267 180.577 112.031 180.73 112.795 180.959C113.407 181.112 114.247 181.417 114.935 181.341C114.935 181.264 114.935 181.188 114.935 181.188Z" fill="#263238"/>
<path d="M94.3017 156.918L88.5702 180.425C88.5702 180.425 60.9064 168.977 53.4937 158.826C50.4369 154.628 49.5198 130.052 51.1247 120.207C52.8059 110.361 58.2317 105.858 62.2055 120.36C66.1793 134.861 70.2295 147.683 71.1466 148.064C72.14 148.522 94.3017 156.918 94.3017 156.918Z" fill="#EE5C51"/>
<path d="M51.1248 123.26C51.2776 123.184 51.4304 123.184 51.5833 123.184C51.7361 123.184 51.9654 123.184 52.1182 123.184C52.5003 123.336 52.7296 123.641 52.7296 124.023C52.7296 124.252 52.8824 124.481 53.0352 124.634C53.1117 124.71 53.2645 124.71 53.4173 124.786C53.5702 124.786 53.723 124.863 53.8759 124.863C53.723 124.939 53.5702 124.939 53.4173 124.939C53.2645 124.939 53.0352 124.939 52.8824 124.863C52.5767 124.71 52.271 124.328 52.271 124.023C52.271 123.794 52.1182 123.565 51.889 123.413C51.8125 123.336 51.6597 123.336 51.5069 123.26C51.4304 123.336 51.2776 123.336 51.1248 123.26ZM60.0658 153.636C60.2187 153.636 60.3715 153.712 60.4479 153.789C60.6772 153.941 60.83 154.17 60.83 154.399C60.83 154.781 61.0593 155.162 61.4414 155.239C61.5942 155.315 61.8235 155.315 61.9763 155.315C62.1292 155.315 62.282 155.239 62.4348 155.239C62.282 155.162 62.1292 155.162 61.9763 155.162C61.8235 155.162 61.6707 155.086 61.5942 155.01C61.365 154.857 61.2886 154.628 61.2886 154.399C61.2886 154.018 61.0593 153.636 60.6772 153.56C60.5244 153.483 60.2951 153.483 60.1423 153.56C59.9894 153.56 59.8366 153.636 59.6837 153.636C59.7602 153.56 59.913 153.56 60.0658 153.636ZM83.6795 176.075C83.8323 176.075 83.9852 176.151 84.0616 176.227C84.2908 176.38 84.4437 176.609 84.4437 176.838C84.4437 177.219 84.6729 177.601 85.055 177.677C85.2079 177.754 85.4371 177.754 85.59 177.754C85.7428 177.754 85.8956 177.677 86.0485 177.677C85.8956 177.601 85.7428 177.601 85.59 177.601C85.4371 177.601 85.2843 177.525 85.2079 177.448C84.9786 177.296 84.9022 177.067 84.9022 176.838C84.9022 176.456 84.6729 176.075 84.2908 175.998C84.138 175.922 83.9087 175.922 83.7559 175.998C83.6031 175.998 83.4502 176.075 83.2974 176.075C83.3738 176.075 83.5266 176.075 83.6795 176.075ZM56.3213 136.387C56.4741 136.387 56.627 136.464 56.7034 136.54C56.9326 136.693 57.0855 136.921 57.0855 137.15C57.0855 137.532 57.3147 137.914 57.6968 137.99C57.8497 138.066 58.0789 138.066 58.2318 138.066C58.3846 138.066 58.5375 137.99 58.6903 137.99C58.5375 137.914 58.3846 137.914 58.2318 137.914C58.0789 137.914 57.9261 137.837 57.8497 137.761C57.6204 137.608 57.544 137.379 57.544 137.15C57.544 136.769 57.3147 136.387 56.9326 136.311C56.7798 136.235 56.5505 136.235 56.3977 136.311C56.2449 136.311 56.092 136.387 55.9392 136.387C56.0156 136.311 56.1684 136.387 56.3213 136.387ZM75.4262 171.877C75.579 171.877 75.7318 171.953 75.8083 172.03C76.0375 172.182 76.1904 172.411 76.1904 172.64C76.1904 173.022 76.4196 173.403 76.8017 173.48C76.9546 173.556 77.1838 173.556 77.3367 173.556C77.4895 173.556 77.6423 173.48 77.7952 173.48C77.6423 173.403 77.4895 173.403 77.3367 173.403C77.1838 173.403 77.031 173.327 76.9546 173.251C76.7253 173.098 76.6489 172.869 76.6489 172.64C76.6489 172.258 76.4196 171.877 76.0375 171.801C75.8847 171.724 75.6554 171.724 75.5026 171.801C75.3498 171.801 75.1969 171.877 75.0441 171.877C75.1205 171.801 75.2733 171.877 75.4262 171.877ZM80.6227 157.605C80.7755 157.605 80.9284 157.681 81.0048 157.757C81.2341 157.91 81.3869 158.139 81.3869 158.368C81.3869 158.75 81.6162 159.131 81.9983 159.207C82.1511 159.284 82.3803 159.284 82.5332 159.284C82.686 159.284 82.8389 159.207 82.9917 159.207C82.8389 159.131 82.686 159.131 82.5332 159.131C82.3803 159.131 82.2275 159.055 82.1511 158.979C81.9218 158.826 81.8454 158.597 81.8454 158.368C81.8454 157.986 81.6162 157.605 81.2341 157.528C81.0812 157.452 80.852 157.452 80.6991 157.528C80.5463 157.528 80.3934 157.605 80.2406 157.605C80.317 157.605 80.4699 157.605 80.6227 157.605ZM69.0069 144.172C68.8541 144.172 68.7012 144.248 68.5484 144.248C68.7012 144.325 68.8541 144.325 69.0069 144.325C69.1598 144.325 69.3126 144.401 69.389 144.401C69.4654 144.401 69.4654 144.477 69.5419 144.554C69.4654 144.401 69.4654 144.248 69.389 144.172C69.3126 144.096 69.1598 144.096 69.0069 144.172ZM69.7711 145.164C69.7711 145.317 69.8475 145.47 69.924 145.622C69.924 145.47 69.8475 145.317 69.7711 145.164ZM92.3149 158.139C92.1621 158.215 92.0856 158.292 91.9328 158.292C91.7035 158.368 91.3979 158.292 91.245 158.139C91.0158 157.91 90.5572 157.757 90.2516 157.91C90.0987 157.986 89.9459 158.139 89.8695 158.215C89.793 158.368 89.7166 158.444 89.6402 158.597C89.793 158.521 89.8695 158.444 90.0223 158.368C90.1751 158.292 90.2516 158.215 90.4044 158.215C90.6337 158.139 90.8629 158.215 91.0922 158.444C91.3979 158.673 91.7799 158.75 92.162 158.597C92.3149 158.521 92.4677 158.368 92.5441 158.292C92.6206 158.139 92.697 158.063 92.7734 157.91C92.5441 157.986 92.4677 158.063 92.3149 158.139ZM69.3126 168.137C69.1598 168.213 69.0833 168.29 68.9305 168.29C68.7012 168.366 68.3956 168.29 68.2427 168.137C68.0135 167.908 67.555 167.756 67.2493 167.908C67.0964 167.984 66.9436 168.137 66.8672 168.213C66.7908 168.366 66.7143 168.442 66.6379 168.595C66.7908 168.519 66.8672 168.442 67.02 168.366C67.1729 168.29 67.2493 168.213 67.4021 168.213C67.6314 168.137 67.8606 168.213 68.0899 168.442C68.3956 168.671 68.7777 168.748 69.1598 168.595C69.3126 168.519 69.4654 168.366 69.5419 168.29C69.6183 168.137 69.6947 168.061 69.7711 167.908C69.5419 167.984 69.4654 168.061 69.3126 168.137ZM66.7908 136.082C66.7143 136.158 66.6379 136.235 66.5615 136.311C66.4851 136.464 66.4087 136.54 66.3322 136.693C66.4851 136.616 66.5615 136.54 66.7143 136.464C66.7908 136.387 66.8672 136.387 66.8672 136.311C66.7908 136.235 66.7908 136.158 66.7908 136.082ZM79.8585 151.423C79.7821 151.499 79.7057 151.652 79.6292 151.728C79.5528 151.881 79.5528 152.11 79.5528 152.262C79.5528 152.415 79.6292 152.567 79.6292 152.72C79.7057 152.567 79.7057 152.415 79.7057 152.262C79.7057 152.11 79.7821 151.957 79.8585 151.881C79.9349 151.728 80.0878 151.575 80.317 151.575C80.1642 151.499 80.0113 151.499 79.8585 151.423ZM68.5484 159.742C68.5484 159.894 68.472 160.047 68.3956 160.123C68.2427 160.352 68.0135 160.505 67.7842 160.505C67.4021 160.505 67.02 160.734 66.9436 161.116C66.8672 161.268 66.8672 161.497 66.8672 161.65C66.8672 161.802 66.9436 161.955 66.9436 162.108C67.02 161.955 67.02 161.802 67.02 161.65C67.02 161.497 67.0964 161.344 67.1729 161.268C67.3257 161.039 67.555 160.963 67.7842 160.963C68.1663 160.963 68.5484 160.734 68.6248 160.352C68.7013 160.2 68.7013 159.971 68.6248 159.818C68.6248 159.665 68.5484 159.513 68.5484 159.36C68.6248 159.436 68.5484 159.589 68.5484 159.742ZM85.8956 167.679C85.8956 167.832 85.8192 167.984 85.7428 168.061C85.59 168.29 85.3607 168.442 85.1315 168.442C84.7494 168.442 84.3673 168.671 84.2908 169.053C84.2144 169.206 84.2144 169.435 84.2144 169.587C84.2144 169.74 84.2908 169.893 84.2908 170.045C84.3673 169.893 84.3673 169.74 84.3673 169.587C84.3673 169.435 84.4437 169.282 84.5201 169.206C84.6729 168.977 84.9022 168.9 85.1315 168.9C85.5135 168.9 85.8956 168.671 85.9721 168.29C86.0485 168.137 86.0485 167.908 85.9721 167.756C85.9721 167.603 85.8956 167.45 85.8956 167.298C85.8956 167.374 85.8956 167.527 85.8956 167.679ZM63.199 128.373C63.199 128.526 63.1226 128.679 63.0462 128.755C62.8934 128.984 62.6641 129.137 62.4348 129.137C62.0527 129.137 61.6707 129.366 61.5942 129.747C61.5178 129.9 61.5178 130.129 61.5178 130.281C61.5178 130.434 61.5942 130.587 61.5942 130.739C61.6707 130.587 61.6706 130.434 61.6706 130.281C61.6706 130.129 61.7471 129.976 61.8235 129.9C61.9763 129.671 62.2056 129.595 62.4348 129.595C62.8169 129.595 63.199 129.366 63.2755 128.984C63.3519 128.831 63.3519 128.602 63.2755 128.45C63.2755 128.297 63.199 128.144 63.199 127.992C63.2755 128.068 63.2755 128.221 63.199 128.373ZM58.7667 119.596C58.9195 119.52 58.996 119.444 59.1488 119.444C59.3781 119.367 59.6837 119.444 59.8366 119.596C60.0658 119.825 60.5244 119.978 60.83 119.825C60.9829 119.749 61.1357 119.596 61.2121 119.52C61.2886 119.367 61.365 119.291 61.4414 119.138C61.2886 119.215 61.2121 119.291 61.0593 119.367C60.9065 119.444 60.83 119.52 60.6772 119.52C60.4479 119.596 60.2187 119.52 59.9894 119.291C59.6837 119.062 59.3016 118.986 58.9195 119.138C58.7667 119.215 58.6139 119.367 58.5374 119.444C58.461 119.596 58.3846 119.673 58.3082 119.825C58.5375 119.749 58.6903 119.673 58.7667 119.596ZM59.1488 146.004C59.3016 145.927 59.3781 145.851 59.5309 145.851C59.7602 145.775 60.0658 145.851 60.2187 146.004C60.4479 146.233 60.9065 146.385 61.2121 146.233C61.365 146.156 61.5178 146.004 61.5942 145.927C61.6707 145.775 61.7471 145.698 61.8235 145.546C61.6707 145.622 61.5942 145.698 61.4414 145.775C61.2886 145.851 61.2121 145.927 61.0593 145.927C60.83 146.004 60.6008 145.927 60.3715 145.698C60.0658 145.47 59.6837 145.393 59.3016 145.546C59.1488 145.622 58.996 145.775 58.9195 145.851C58.8431 146.004 58.7667 146.08 58.6903 146.233C58.9196 146.156 59.0724 146.08 59.1488 146.004ZM70.3825 152.873C70.5353 152.796 70.6117 152.72 70.7646 152.72C70.9938 152.644 71.2995 152.72 71.4524 152.873C71.6816 153.102 72.1401 153.254 72.4458 153.102C72.5986 153.025 72.7515 152.873 72.8279 152.796C72.9043 152.644 72.9807 152.567 73.0572 152.415C72.9043 152.491 72.8279 152.567 72.6751 152.644C72.5222 152.72 72.4458 152.796 72.293 152.796C72.0637 152.873 71.8344 152.796 71.6052 152.567C71.2995 152.338 70.9174 152.262 70.5353 152.415C70.3825 152.491 70.2296 152.644 70.1532 152.72C70.0768 152.873 70.0004 152.949 69.924 153.102C70.0768 153.025 70.2296 152.949 70.3825 152.873ZM53.8759 157.757C53.723 157.834 53.6466 157.91 53.4938 157.91C53.3409 157.986 53.1881 157.91 53.0352 157.834C53.1117 157.986 53.1881 158.139 53.1881 158.215C53.3409 158.215 53.4173 158.215 53.5702 158.139C53.723 158.063 53.8759 157.91 53.9523 157.834C54.0287 157.757 54.1051 157.605 54.1815 157.452C54.1051 157.605 53.9523 157.681 53.8759 157.757ZM75.8083 164.855C75.9611 164.779 76.0375 164.703 76.1904 164.703C76.4196 164.626 76.7253 164.703 76.8781 164.855C77.1074 165.084 77.5659 165.237 77.8716 165.084C78.0244 165.008 78.1773 164.855 78.2537 164.779C78.3301 164.626 78.4065 164.55 78.4829 164.397C78.3301 164.474 78.2537 164.55 78.1009 164.626C77.948 164.703 77.8716 164.779 77.7188 164.779C77.4895 164.855 77.2602 164.779 77.031 164.55C76.7253 164.321 76.3432 164.245 75.9611 164.397C75.8083 164.474 75.6554 164.626 75.579 164.703C75.5026 164.855 75.4262 164.932 75.3497 165.084C75.579 165.008 75.6554 164.932 75.8083 164.855Z" fill="white"/>
<path d="M58.3082 163.482C56.3977 162.031 54.3344 160.276 53.1881 158.292C52.5003 157.147 52.4239 156.155 52.1946 154.857C51.9654 153.483 51.7361 152.033 51.5833 150.659C50.8955 145.164 50.5898 139.669 50.6662 134.174C50.7427 131.045 50.8955 127.916 51.2012 124.863C51.2012 124.786 51.1247 124.786 51.1247 124.863C50.7427 127.381 50.437 129.9 50.2841 132.419C50.2841 132.037 50.2077 131.655 50.2077 131.35C50.1313 130.358 50.1313 129.366 50.1313 128.373C50.1313 128.297 50.0549 128.297 50.0549 128.373C49.9785 129.366 49.9785 130.434 50.0549 131.426C50.1313 131.961 50.1313 132.571 50.2841 133.105C50.0549 136.006 50.0549 138.906 50.1313 141.882C50.2077 144.783 50.437 147.607 50.7427 150.43C50.8955 151.804 51.1247 153.178 51.354 154.552C51.5833 155.849 51.8125 157.223 52.4239 158.444C53.5702 160.81 56.0156 162.337 58.3082 163.634C58.3082 163.634 58.3846 163.558 58.3082 163.482Z" fill="#263238"/>
<path d="M71.6815 148.065C70.7645 147.912 70.5352 146.538 70.2295 145.851C69.9238 144.935 69.5417 144.02 69.2361 143.104C68.6247 141.348 68.0134 139.517 67.4784 137.685C67.0199 136.235 66.5614 134.708 66.1793 133.182C66.0264 132.266 65.95 131.274 65.7972 130.358C65.7972 130.282 65.7208 130.282 65.7208 130.358C65.7972 131.045 65.8736 131.655 66.0265 132.342C65.4915 130.434 64.9566 128.526 64.3452 126.618C64.3452 126.542 64.2688 126.618 64.2688 126.618C64.9566 129.747 65.6444 132.8 66.485 135.853C67.3256 138.906 68.2426 141.959 69.4653 144.859C69.771 145.622 70.0767 146.386 70.4588 147.072C70.7645 147.607 71.0701 147.912 71.6815 148.065C71.7579 148.217 71.7579 148.065 71.6815 148.065Z" fill="#263238"/>
<path d="M89.7166 157.071C89.1052 158.597 88.6467 160.2 88.1882 161.802C87.7296 163.482 87.2711 165.084 86.8126 166.763C86.3541 168.442 84.8257 175.082 84.4436 176.762C84.4436 176.838 84.52 176.838 84.5964 176.762C85.055 175.082 87.0419 168.595 87.5004 166.992C87.9589 165.39 88.341 163.711 88.7231 162.108C89.0288 160.429 89.5637 158.75 89.7166 157.071Z" fill="#263238"/>
</g>
<defs>
<clipPath id="clip0_36_2683">
<rect width="502" height="332" fill="white"/>
</clipPath>
</defs>
</svg>
