<svg width="484" height="347" viewBox="0 0 484 347" fill="none" xmlns="http://www.w3.org/2000/svg">
<g clip-path="url(#clip0_45_3771)">
<path d="M458.933 317.907H0.528809" stroke="#E9F4FF" stroke-width="0.98" stroke-miterlimit="10" stroke-linecap="round" stroke-linejoin="round"/>
<path d="M158.019 25.9192H140.356V33.2189H158.019V25.9192Z" stroke="#E9F4FF" stroke-width="0.98" stroke-miterlimit="10" stroke-linecap="round" stroke-linejoin="round"/>
<path d="M122.692 25.9192H140.356V33.2189H122.692" stroke="#E9F4FF" stroke-width="0.98" stroke-miterlimit="10" stroke-linecap="round" stroke-linejoin="round"/>
<path d="M149.135 33.2189H131.471V40.5186H149.135V33.2189Z" stroke="#E9F4FF" stroke-width="0.98" stroke-miterlimit="10" stroke-linecap="round" stroke-linejoin="round"/>
<path d="M144.587 18.6195V25.9192H134.75V18.6195" stroke="#E9F4FF" stroke-width="0.98" stroke-miterlimit="10" stroke-linecap="round" stroke-linejoin="round"/>
<path d="M430.375 145.465H412.711V152.765H430.375V145.465Z" stroke="#E9F4FF" stroke-width="0.98" stroke-miterlimit="10" stroke-linecap="round" stroke-linejoin="round"/>
<path d="M394.942 145.465H412.712V152.765H394.942" stroke="#E9F4FF" stroke-width="0.98" stroke-miterlimit="10" stroke-linecap="round" stroke-linejoin="round"/>
<path d="M421.491 152.765H403.827V160.064H421.491V152.765Z" stroke="#E9F4FF" stroke-width="0.98" stroke-miterlimit="10" stroke-linecap="round" stroke-linejoin="round"/>
<path d="M416.943 138.165V145.465H407.106V138.165" stroke="#E9F4FF" stroke-width="0.98" stroke-miterlimit="10" stroke-linecap="round" stroke-linejoin="round"/>
<path d="M470.779 267.444C470.779 267.444 456.182 267.444 442.961 267.444C429.74 267.444 429.423 276.119 433.971 292.411C438.519 308.703 441.163 317.907 441.163 317.907" stroke="#E9F4FF" stroke-width="0.98" stroke-miterlimit="10" stroke-linecap="round" stroke-linejoin="round"/>
<path d="M456.923 218.673C456.923 218.673 463.481 197.621 438.731 187.888C442.644 193.601 442.644 193.601 442.644 193.601C442.644 193.601 430.269 187.041 417.894 187.888C419.058 215.288 443.384 219.943 456.923 218.673Z" fill="#BDC3D1"/>
<path d="M465.596 267.444C465.596 267.444 473.846 227.666 445.288 206.507" stroke="#E9F4FF" stroke-width="0.98" stroke-miterlimit="10" stroke-linecap="round" stroke-linejoin="round"/>
<path d="M441.375 238.034C438.942 226.819 422.336 234.013 423.923 245.016C425.51 255.912 431.327 260.673 431.327 260.673C431.327 260.673 441.058 255.595 446.875 251.681C452.692 247.766 453.961 231.898 441.375 238.034Z" fill="#BDC3D1"/>
<path d="M466.548 249.882C461.471 233.273 450.154 227.348 440.634 240.044" stroke="#E9F4FF" stroke-width="0.98" stroke-miterlimit="10" stroke-linecap="round" stroke-linejoin="round"/>
<path d="M464.538 275.273H431.538" stroke="#E9F4FF" stroke-width="0.98" stroke-miterlimit="10" stroke-linecap="round" stroke-linejoin="round"/>
<path d="M204.875 139.646C210.375 127.374 268.654 113.621 284.942 125.788C278.385 143.138 278.385 143.138 278.385 143.138L219.683 150.755L204.875 139.646Z" fill="#100D14"/>
<path d="M283.673 28.5641C298.375 43.1634 295.202 61.3598 299.432 75.6418C303.663 89.9238 314.557 106.216 303.875 119.546C293.086 132.981 268.548 134.886 261.355 119.546C254.163 104.206 239.99 102.302 230.577 108.438C221.163 114.574 204.029 114.997 199.798 101.561C195.567 88.1253 212.279 76.6997 223.067 77.3345C233.75 78.1808 242.846 16.8211 283.673 28.5641Z" fill="#100D14"/>
<path d="M229.519 97.964L222.327 149.168L264.952 148.11L274.682 91.0875L229.519 97.964Z" fill="#E5987D"/>
<path d="M226.134 121.979L260.827 97.5409L229.519 97.9641L226.134 121.979Z" fill="#DB785E"/>
<path d="M261.461 33.0074C239.672 26.6598 215.028 43.375 213.971 71.0927C212.913 98.8104 233.326 108.12 254.057 104.312C274.682 100.397 287.057 81.143 284.624 60.6192C282.826 45.5967 272.884 36.3927 261.461 33.0074Z" fill="#E5987D"/>
<path d="M213.442 53.6369L253.74 60.725C253.74 60.725 260.827 48.0299 270.134 45.5967C262.202 57.7628 268.865 68.4479 268.865 68.4479L266.75 78.9214L274.154 81.2488C274.154 81.2488 277.75 73.3144 284.202 73.6317C295.307 72.3622 296.048 45.3851 287.269 32.69C282.615 26.025 267.067 13.3299 240.202 19.1485C220.423 23.486 212.702 39.7781 210.057 48.0299C209.105 50.4631 210.798 53.108 213.442 53.6369Z" fill="#100D14"/>
<path d="M232.163 86.4326C232.163 86.4326 237.875 90.4528 243.903 85.5863" stroke="#100D14" stroke-width="0.98" stroke-miterlimit="10" stroke-linecap="round" stroke-linejoin="round"/>
<path d="M232.163 65.274L225.077 79.1329L230.471 80.614" stroke="#100D14" stroke-width="0.98" stroke-miterlimit="10" stroke-linecap="round" stroke-linejoin="round"/>
<path d="M223.596 70.3521L223.384 70.2463C222.644 70.1405 222.221 69.3999 222.432 68.6594L222.961 66.4378C223.067 65.6972 223.807 65.274 224.548 65.4856L224.759 65.5914C225.5 65.6972 225.923 66.4378 225.711 67.1783L225.182 69.3999C224.971 70.0347 224.23 70.4579 223.596 70.3521Z" fill="#100D14"/>
<path d="M218.307 78.7097C224.032 78.7097 228.673 74.068 228.673 68.342C228.673 62.6161 224.032 57.9744 218.307 57.9744C212.583 57.9744 207.942 62.6161 207.942 68.342C207.942 74.068 212.583 78.7097 218.307 78.7097Z" stroke="#100D14" stroke-width="0.98" stroke-miterlimit="10" stroke-linecap="round" stroke-linejoin="round"/>
<path d="M249.087 73.9491L248.875 73.8433C248.135 73.7375 247.712 72.997 247.923 72.2564L248.452 70.0348C248.558 69.2942 249.298 68.8711 250.038 69.0827L250.25 69.1885C250.99 69.2942 251.413 70.0348 251.202 70.7753L250.673 72.997C250.462 73.6317 249.721 74.0549 249.087 73.9491Z" fill="#100D14"/>
<path d="M244.009 81.8836C249.734 81.8836 254.375 77.2418 254.375 71.5159C254.375 65.79 249.734 61.1482 244.009 61.1482C238.285 61.1482 233.644 65.79 233.644 71.5159C233.644 77.2418 238.285 81.8836 244.009 81.8836Z" stroke="#100D14" stroke-width="0.98" stroke-miterlimit="10" stroke-linecap="round" stroke-linejoin="round"/>
<path d="M278.913 70.7754C286.317 63.5815 294.25 66.7553 293.192 76.3824C292.24 85.9037 283.99 93.7324 275.105 92.3571C270.557 83.1531 278.913 70.7754 278.913 70.7754Z" fill="#E5987D"/>
<path d="M288.644 72.1506C283.567 70.458 278.278 78.9214 281.134 86.2211" stroke="#100D14" stroke-width="0.98" stroke-miterlimit="10" stroke-linecap="round" stroke-linejoin="round"/>
<path d="M280.394 81.1431C280.394 76.4882 287.798 77.0172 287.269 80.6141" stroke="#100D14" stroke-width="0.98" stroke-miterlimit="10" stroke-linecap="round" stroke-linejoin="round"/>
<path d="M204.875 139.646C204.875 139.646 209.528 146.417 238.192 146.311C266.855 146.206 284.942 125.788 284.942 125.788L280.923 147.898C280.923 147.898 284.836 145.042 310.221 139.541C335.605 133.934 348.827 147.475 349.673 169.586C350.519 191.696 323.971 215.5 323.971 215.5L308.423 317.907H193.98V213.913C193.98 213.913 169.336 194.553 171.452 173.712C173.567 152.765 192.5 144.09 208.471 149.168C206.99 146.311 204.875 139.646 204.875 139.646Z" fill="#C9493B"/>
<path d="M250.461 201.747H286.211" stroke="#100D14" stroke-width="0.98" stroke-miterlimit="10" stroke-linecap="round" stroke-linejoin="round"/>
<path d="M250.461 195.293H286.317V219.414C286.317 224.704 282.086 228.936 276.798 228.936H260.086C254.798 228.936 250.567 224.704 250.567 219.414V195.293H250.461Z" stroke="#100D14" stroke-width="0.98" stroke-miterlimit="10" stroke-linecap="round" stroke-linejoin="round"/>
<path d="M175.154 161.44C157.702 191.062 143.952 224.386 143.952 224.386L193.98 234.754L196.413 191.379L175.154 161.44Z" fill="#C9493B"/>
<path d="M196.307 191.379L193.98 258.875" stroke="#100D14" stroke-width="0.98" stroke-miterlimit="10" stroke-linecap="round" stroke-linejoin="round"/>
<path d="M276.798 166.729L284.942 125.788" stroke="#100D14" stroke-width="0.98" stroke-miterlimit="10" stroke-linecap="round" stroke-linejoin="round"/>
<path d="M215.24 164.508L204.875 139.646" stroke="#100D14" stroke-width="0.98" stroke-miterlimit="10" stroke-linecap="round" stroke-linejoin="round"/>
<path d="M188.058 197.198L195.885 205.555" stroke="#100D14" stroke-width="0.98" stroke-miterlimit="10" stroke-linecap="round" stroke-linejoin="round"/>
<path d="M400.231 193.495C407.634 195.188 400.442 216.029 373.471 226.608C346.5 237.187 326.298 226.608 326.298 226.608C326.298 226.608 342.904 188.099 400.231 193.495Z" fill="#100D14"/>
<path d="M370.509 182.387C370.509 182.387 388.067 212.114 404.673 234.754C433.231 273.686 379.077 306.164 349.673 261.731C326.404 226.502 323.336 221.741 323.336 221.741L370.509 182.387Z" fill="#E5987D"/>
<path d="M391.557 216.029L326.298 226.608C326.298 226.608 329.259 205.661 374.846 189.686C391.557 216.029 391.557 216.029 391.557 216.029Z" fill="#DB785E"/>
<path d="M318.471 138.271C345.548 136.261 351.048 162.498 375.586 177.943C400.231 193.389 400.231 193.389 400.231 193.389C400.231 193.389 365.961 196.351 344.279 210.104C325.029 222.271 326.298 226.502 326.298 226.502C326.298 226.502 305.885 194.976 299.538 179.424C293.192 163.873 295.096 140.07 318.471 138.271Z" fill="#C9493B"/>
<path d="M409.828 268.014C417.04 253.461 411.091 235.815 396.54 228.602C381.99 221.388 364.348 227.338 357.136 241.892C349.924 256.446 355.874 274.091 370.424 281.305C384.974 288.518 402.616 282.568 409.828 268.014Z" fill="#E5987D"/>
<path d="M367.971 229.888L279.442 277.917L305.25 313.57L400.231 278.975L367.971 229.888Z" fill="#E5987D"/>
<path d="M303.24 300.134H278.596C272.884 300.134 268.336 295.585 268.336 289.872V287.862C268.336 282.149 272.884 277.6 278.596 277.6H303.24C308.952 277.6 313.5 282.149 313.5 287.862V289.872C313.5 295.585 308.952 300.134 303.24 300.134Z" fill="#E5987D"/>
<path d="M282.721 300.345H281.346C277.644 300.345 274.683 297.383 274.683 293.681V276.119C274.683 272.416 277.644 269.454 281.346 269.454H282.721C286.423 269.454 289.385 272.416 289.385 276.119V293.681C289.385 297.277 286.317 300.345 282.721 300.345Z" fill="#E5987D"/>
<path d="M281.346 280.456L280.182 281.091C277.009 282.89 272.884 281.832 271.086 278.658L262.307 263.53C260.509 260.356 261.567 256.23 264.74 254.431L265.903 253.797C269.077 251.998 273.202 253.056 275 256.23L283.778 271.358C285.682 274.532 284.519 278.658 281.346 280.456Z" fill="#E5987D"/>
<path d="M297.317 300.345H295.942C292.24 300.345 289.279 297.383 289.279 293.681V276.119C289.279 272.416 292.24 269.454 295.942 269.454H297.317C301.019 269.454 303.981 272.416 303.981 276.119V293.681C303.981 297.277 301.019 300.345 297.317 300.345Z" fill="#E5987D"/>
<path d="M311.913 300.345H310.538C306.837 300.345 303.875 297.383 303.875 293.681V276.119C303.875 272.416 306.837 269.454 310.538 269.454H311.913C315.615 269.454 318.577 272.416 318.577 276.119V293.681C318.577 297.277 315.615 300.345 311.913 300.345Z" fill="#E5987D"/>
<path d="M288.115 272.734C288.856 273.897 289.279 275.273 289.279 276.754V292.94C289.279 296.96 286 300.24 281.981 300.24C277.961 300.24 274.683 296.96 274.683 292.94V276.754C274.683 272.734 277.961 269.454 281.981 269.454" stroke="#100D14" stroke-width="0.98" stroke-miterlimit="10" stroke-linecap="round" stroke-linejoin="round"/>
<path d="M300.49 270.512C302.605 271.781 303.98 274.109 303.98 276.754V292.94C303.98 296.96 300.702 300.24 296.682 300.24C292.663 300.24 289.384 296.96 289.384 292.94V276.754C289.384 274.003 290.865 271.676 293.086 270.406" stroke="#100D14" stroke-width="0.98" stroke-miterlimit="10" stroke-linecap="round" stroke-linejoin="round"/>
<path d="M318.577 280.456V293.046C318.577 297.066 315.298 300.345 311.279 300.345C307.259 300.345 303.98 297.066 303.98 293.046V276.86C303.98 272.839 307.259 269.56 311.279 269.56C318.577 269.56 325.452 269.56 325.452 269.56" stroke="#100D14" stroke-width="0.98" stroke-miterlimit="10" stroke-linecap="round" stroke-linejoin="round"/>
<path d="M265.375 254.114C256.702 259.827 256.49 280.668 256.279 288.92C256.067 297.172 270.346 299.499 271.933 287.121C273.519 274.744 274.577 267.444 274.577 267.444L265.375 254.114Z" fill="#E5987D"/>
<path d="M265.375 254.114C256.702 259.827 256.49 280.668 256.279 288.92C256.067 297.172 270.346 299.499 271.933 287.121C273.519 274.744 274.577 267.444 274.577 267.444" stroke="#100D14" stroke-width="0.98" stroke-miterlimit="10" stroke-linecap="round" stroke-linejoin="round"/>
<path d="M318.577 284.265C318.577 284.265 319.529 291.67 325.452 292.305" stroke="#100D14" stroke-width="0.98" stroke-miterlimit="10" stroke-linecap="round" stroke-linejoin="round"/>
<path d="M362.682 232.744L288.327 273.157" stroke="#100D14" stroke-width="0.98" stroke-miterlimit="10" stroke-linecap="round" stroke-linejoin="round"/>
<path d="M338.99 245.651L302.077 187.888" stroke="#100D14" stroke-width="0.98" stroke-miterlimit="10" stroke-linecap="round" stroke-linejoin="round"/>
<path d="M345.442 232.744L338.99 245.651" stroke="#100D14" stroke-width="0.98" stroke-miterlimit="10" stroke-linecap="round" stroke-linejoin="round"/>
<path d="M364.058 168.951C368.817 173.5 373.577 177.309 378.019 179.213" stroke="#EFF6FF" stroke-width="0.98" stroke-miterlimit="10" stroke-linecap="round" stroke-linejoin="round"/>
<path d="M280.817 147.581C306.942 138.377 323.125 133.193 335.712 141.551C341.74 145.571 348.51 152.976 355.49 160.276" stroke="#EFF6FF" stroke-width="0.98" stroke-miterlimit="10" stroke-linecap="round" stroke-linejoin="round"/>
<path d="M136.231 88.0195C129.567 109.707 89.0576 235.177 89.0576 235.177L136.231 249.459L175.788 138.059C175.788 138.059 191.548 134.674 197.471 133.405C205.192 131.712 207.836 117.007 193.135 119.334C178.538 121.767 178.538 121.767 178.538 121.767L184.356 98.493L136.231 88.0195Z" fill="#E5987D"/>
<path d="M107.884 176.78L153.788 200.16L143.952 235.6L96.9902 210.528L107.884 176.78Z" fill="#DB785E"/>
<path d="M204.557 74.2665C213.336 68.1305 221.586 78.1809 212.384 85.269C203.077 92.2513 180.654 109.813 180.654 109.813L172.086 97.012C171.98 96.9062 197.471 79.133 204.557 74.2665Z" fill="#E5987D"/>
<path d="M147.654 84.8458C151.884 86.9616 153.683 91.8281 151.567 95.7424C149.452 99.6567 144.375 101.138 140.144 98.9162C135.913 96.8003 134.115 91.9339 136.231 88.0195C138.346 84.1052 143.423 82.7299 147.654 84.8458Z" fill="#E5987D"/>
<path d="M158.548 88.2311C162.779 90.347 164.577 95.2134 162.461 99.1278C160.346 103.042 155.269 104.523 151.038 102.302C146.807 100.186 145.009 95.3192 147.125 91.4049C149.134 87.4906 154.317 86.1153 158.548 88.2311Z" fill="#E5987D"/>
<path d="M157.475 87.7772L146.262 84.2977L141.53 99.5552L152.743 103.035L157.475 87.7772Z" fill="#E5987D"/>
<path d="M162.144 85.3747C166.164 87.3848 167.856 92.0397 165.846 95.7424C163.837 99.4452 158.971 100.82 155.058 98.8104C151.039 96.8004 149.346 92.1455 151.356 88.4427C153.26 84.74 158.125 83.3647 162.144 85.3747Z" fill="#E5987D"/>
<path d="M172.404 88.5486C176.423 90.5586 178.116 95.2135 176.106 98.9163C174.096 102.619 169.231 103.994 165.318 101.984C161.298 99.9742 159.606 95.3193 161.616 91.6166C163.519 87.9138 168.385 86.5385 172.404 88.5486Z" fill="#E5987D"/>
<path d="M171.457 88.1003L160.85 84.809L156.369 99.258L166.976 102.549L171.457 88.1003Z" fill="#E5987D"/>
<path d="M173.673 101.667C173.673 101.667 178.75 109.601 182.135 116.689C185.519 123.777 198.318 118.276 193.452 105.687C190.173 97.2235 184.991 92.0397 184.991 92.0397L173.673 101.667Z" fill="#E5987D"/>
<path d="M186.894 94.1555C189.01 97.7524 187.74 102.407 184.039 104.523C180.442 106.639 175.789 105.37 173.673 101.667C171.558 98.0698 172.827 93.4149 176.529 91.2991C180.231 89.1832 184.779 90.4527 186.894 94.1555Z" fill="#E5987D"/>
<path d="M173.673 101.667C173.673 101.667 178.75 109.601 182.134 116.689C185.519 123.778 198.317 118.276 193.452 105.687C190.173 97.2236 184.99 92.0398 184.99 92.0398C182.663 89.5007 177.375 89.8181 175.259 92.1455" stroke="#100D14" stroke-width="0.98" stroke-miterlimit="10" stroke-linecap="round" stroke-linejoin="round"/>
<path d="M162.144 95.6366C162.144 95.6366 162.567 104.841 162.039 112.458C161.51 120.181 175.048 121.662 176.952 108.649C178.327 99.8683 176.423 92.9918 176.423 92.9918L162.144 95.6366Z" fill="#E5987D"/>
<path d="M176.952 95.6367C176.952 99.7626 173.673 103.042 169.548 103.042C165.423 103.042 162.145 99.7626 162.145 95.6367C162.145 91.5108 165.423 88.2312 169.548 88.2312C173.568 88.2312 176.952 91.6166 176.952 95.6367Z" fill="#E5987D"/>
<path d="M174.096 89.8181C177.163 93.6267 177.904 100.292 177.058 107.485C176.317 114.679 173.25 118.594 167.327 118.382C161.404 118.171 161.086 111.188 161.086 111.188" stroke="#100D14" stroke-width="0.98" stroke-miterlimit="10" stroke-linecap="round" stroke-linejoin="round"/>
<path d="M148.5 95.954C148.5 95.954 148.923 105.158 148.394 112.775C147.865 120.498 161.404 121.979 163.307 108.967C164.682 100.186 162.779 93.3092 162.779 93.3092L148.5 95.954Z" fill="#E5987D"/>
<path d="M163.307 95.9541C163.307 100.08 160.028 103.36 155.903 103.36C151.778 103.36 148.5 100.08 148.5 95.9541C148.5 91.8282 151.778 88.5486 155.903 88.5486C160.028 88.5486 163.307 91.8282 163.307 95.9541Z" fill="#E5987D"/>
<path d="M149.558 85.2689C149.558 85.2689 156.01 87.4906 160.558 89.6064C165 91.6165 163.942 103.571 163.519 108.226C163.202 112.881 159.923 118.382 154.74 118.699C149.558 119.017 148.077 116.055 148.606 109.072C149.135 101.984 148.5 96.0598 148.5 96.0598" stroke="#100D14" stroke-width="0.98" stroke-miterlimit="10" stroke-linecap="round" stroke-linejoin="round"/>
<path d="M141.519 99.551L148.711 101.773" stroke="#100D14" stroke-width="0.98" stroke-miterlimit="10" stroke-linecap="round" stroke-linejoin="round"/>
<path d="M153.365 134.251C153.365 134.251 155.269 126.316 163.942 124.095" stroke="#100D14" stroke-width="0.98" stroke-miterlimit="10" stroke-linecap="round" stroke-linejoin="round"/>
<path d="M170.605 139.012L196.307 133.722" stroke="#100D14" stroke-width="0.98" stroke-miterlimit="10" stroke-linecap="round" stroke-linejoin="round"/>
<path d="M484 14.9168V81.8835C484 90.1354 477.337 96.8003 469.087 96.8003H375.481L336.558 108.438C333.914 109.178 331.798 106.216 333.279 103.994L348.51 81.8835V14.9168C348.51 14.0704 348.615 13.2241 348.721 12.4835C349.885 5.39543 356.019 0 363.529 0H469.087C476.49 0 482.625 5.39543 483.788 12.4835C483.894 13.3299 484 14.0704 484 14.9168Z" fill="#EFF6FF"/>
<path d="M402.029 50.1457V35.1232C402.029 32.7957 404.461 31.4204 406.471 32.5841L419.481 40.0954L432.49 47.6067C434.5 48.7704 434.5 51.6268 432.49 52.7905L419.481 60.3018L406.471 67.8131C404.461 68.9768 402.029 67.4957 402.029 65.2741V50.1457Z" fill="#F6D966"/>
<path d="M483.788 12.4835H348.721C349.885 5.39543 356.019 0 363.529 0H469.087C476.49 0 482.625 5.39543 483.788 12.4835Z" fill="#BDC3D1"/>
<path d="M367.336 6.24176C367.336 6.98231 366.702 7.61706 365.961 7.61706C365.221 7.61706 364.586 6.98231 364.586 6.24176C364.586 5.50121 365.221 4.86646 365.961 4.86646C366.702 4.86646 367.336 5.50121 367.336 6.24176Z" fill="#C9493B"/>
<path d="M373.577 7.61706C374.336 7.61706 374.952 7.00132 374.952 6.24176C374.952 5.4822 374.336 4.86646 373.577 4.86646C372.817 4.86646 372.202 5.4822 372.202 6.24176C372.202 7.00132 372.817 7.61706 373.577 7.61706Z" fill="#E6C75B"/>
<path d="M381.298 7.61706C382.057 7.61706 382.673 7.00132 382.673 6.24176C382.673 5.4822 382.057 4.86646 381.298 4.86646C380.538 4.86646 379.923 5.4822 379.923 6.24176C379.923 7.00132 380.538 7.61706 381.298 7.61706Z" fill="#5E9F63"/>
<path d="M64.7307 208.623H224.231C226.558 208.623 228.567 209.998 229.519 212.114L271.298 309.973C272.885 313.781 270.135 317.907 266.01 317.907H105.558C103.231 317.907 101.115 316.532 100.269 314.416L59.4422 216.558C57.8557 212.749 60.6057 208.623 64.7307 208.623Z" fill="#EFF6FF"/>
<path d="M374.846 300.345H258.5V317.907H374.846V300.345Z" fill="#EFF6FF"/>
<path d="M267.173 300.345H94.4517L101.75 317.907H274.682L267.173 300.345Z" fill="#2A5252"/>
<path d="M168.596 256.336C170.288 262.577 166.692 267.55 160.558 267.55C154.423 267.55 147.865 262.472 146.173 256.336C144.481 250.094 148.077 245.122 154.212 245.122C160.346 245.122 166.904 250.2 168.596 256.336Z" fill="#BDC3D1"/>
<path opacity="0.15" d="M115.288 347H470.99C472.154 347 473.106 346.048 473.106 344.884V344.461C473.106 343.297 472.154 342.345 470.99 342.345H115.288C114.125 342.345 113.173 343.297 113.173 344.461V344.884C113.173 346.048 114.125 347 115.288 347Z" fill="black"/>
<path d="M334.019 347H471.096C472.26 347 473.212 346.048 473.212 344.884V344.461C473.212 343.297 472.26 342.345 471.096 342.345H334.019C332.856 342.345 331.904 343.297 331.904 344.461V344.884C331.904 346.048 332.856 347 334.019 347Z" fill="#EFF6FF"/>
</g>
<defs>
<clipPath id="clip0_45_3771">
<rect width="484" height="347" fill="white"/>
</clipPath>
</defs>
</svg>
