<svg width="169" height="169" viewBox="0 0 169 169" fill="none" xmlns="http://www.w3.org/2000/svg">
<g clip-path="url(#clip0_49_4836)">
<path d="M167.774 5.66908C167.315 4.59655 166.242 3.67724 165.016 3.83046C164.25 3.83046 163.637 4.13689 163.178 4.74977L137.59 31.4098C137.743 31.2566 137.743 31.2566 137.897 31.1034H169V8.12058L167.774 5.66908Z" fill="url(#paint0_linear_49_4836)"/>
<path d="M5.5159 163.484C1.99187 167.008 3.67727 168.694 5.5159 169H36.0064L35.6999 132.84C30.4905 137.59 5.5159 163.484 5.5159 163.484Z" fill="url(#paint1_linear_49_4836)"/>
<path d="M161.952 0C143.106 0 93.6165 0 93.6165 0C88.4071 0 83.1976 2.14506 79.5204 5.8223L5.8223 79.5204C2.14506 83.1976 0 88.2539 0 93.6165C0 93.6165 0 151.533 0 165.782C0 167.468 1.37897 169 3.21759 169H5.97552H5.66908C2.4515 168.387 3.83046 165.323 5.20943 163.944L31.2566 137.743C66.65 102.35 102.197 66.8033 137.59 31.4098L163.178 4.74977C163.637 4.1369 164.403 3.98368 165.016 3.83046C166.242 3.67724 167.315 4.59655 167.774 5.66908L169 8.12058V7.04805C169 3.21759 165.782 0 161.952 0Z" fill="#EE5C51"/>
<path d="M28.8657 96.9633L30.9026 99.0003L25.2739 104.629L23.237 102.592L28.8657 96.9633Z" fill="white"/>
<path d="M38.2097 101.998L33.2017 86.7575L33.1174 86.6731L27.1572 92.6333L25.0238 90.4999L33.6839 81.8399L35.8474 84.0034L40.9036 99.3046L38.2097 101.998Z" fill="white"/>
<path d="M52.6597 88.0908C51.6192 89.1234 50.4721 89.7602 49.2186 90.0012C47.9691 90.2383 46.6634 90.0775 45.3014 89.5191C43.9434 88.9566 42.5915 87.9984 41.2456 86.6445C39.8997 85.2985 38.9515 83.9526 38.4011 82.6067C37.8547 81.2568 37.706 79.9631 37.9551 78.7257C38.2042 77.4802 38.845 76.3412 39.8776 75.3087C40.9101 74.2761 42.0471 73.6373 43.2886 73.3922C44.534 73.1431 45.8317 73.2918 47.1817 73.8382C48.5276 74.3806 49.8715 75.3267 51.2134 76.6767C52.5673 78.0306 53.5235 79.3886 54.082 80.7506C54.6444 82.1085 54.8072 83.4123 54.5701 84.6618C54.3331 85.9112 53.6963 87.0543 52.6597 88.0908ZM50.4962 85.9273C51.2033 85.2202 51.4122 84.3002 51.123 83.1672C50.8337 82.0342 49.9759 80.7586 48.5497 79.3404C47.6136 78.4043 46.7377 77.7213 45.9221 77.2914C45.1106 76.8575 44.3733 76.6586 43.7104 76.6947C43.0515 76.7269 42.487 76.978 42.017 77.4481C41.3139 78.1511 41.103 79.0652 41.3842 80.1901C41.6654 81.315 42.5051 82.5806 43.9033 83.9868C44.8514 84.935 45.7373 85.632 46.5609 86.078C47.3845 86.5159 48.1298 86.7188 48.7968 86.6866C49.4597 86.6505 50.0262 86.3974 50.4962 85.9273Z" fill="white"/>
<path d="M63.6746 71.9052L63.0238 71.2543C62.5296 70.7602 62.1801 70.2017 61.9752 69.579C61.7703 68.9482 61.7441 68.3074 61.8968 67.6565C62.0495 66.9976 62.4171 66.3769 62.9997 65.7944C63.5903 65.2038 64.211 64.8321 64.8618 64.6795C65.5167 64.5228 66.1555 64.5509 66.7783 64.7638C67.401 64.9687 67.9615 65.3203 68.4596 65.8185L69.1105 66.4693C69.6047 66.9635 69.9562 67.524 70.1651 68.1507C70.37 68.7734 70.3941 69.4123 70.2375 70.0671C70.0848 70.726 69.7172 71.3468 69.1346 71.9293C68.544 72.5199 67.9213 72.8895 67.2664 73.0382C66.6155 73.1909 65.9787 73.1647 65.356 72.9598C64.7293 72.7509 64.1688 72.3994 63.6746 71.9052ZM64.7775 69.5006L65.4283 70.1515C65.7136 70.4368 66.0511 70.6376 66.4408 70.7541C66.8345 70.8666 67.2142 70.7401 67.5798 70.3745C67.9454 70.0089 68.0699 69.6352 67.9534 69.2536C67.8409 68.8679 67.638 68.5284 67.3447 68.2351L66.6939 67.5842C66.4006 67.2909 66.0631 67.082 65.6814 66.9575C65.2998 66.8329 64.9201 66.9595 64.5424 67.3371C64.1808 67.6987 64.0563 68.0764 64.1688 68.4701C64.2813 68.8638 64.4842 69.2074 64.7775 69.5006ZM50.2778 71.176L49.6269 70.5251C49.1287 70.027 48.7792 69.4645 48.5783 68.8377C48.3734 68.207 48.3473 67.5661 48.4999 66.9153C48.6566 66.2604 49.0222 65.6457 49.5968 65.0712C50.1914 64.4766 50.8141 64.1029 51.465 63.9503C52.1158 63.7976 52.7546 63.8257 53.3814 64.0346C54.0041 64.2395 54.5646 64.5911 55.0628 65.0893L55.7136 65.7401C56.2118 66.2383 56.5614 66.8008 56.7622 67.4275C56.9671 68.0503 56.9913 68.6891 56.8346 69.344C56.6779 69.9908 56.3062 70.6075 55.7197 71.1941C55.1331 71.7807 54.5124 72.1523 53.8575 72.309C53.2026 72.4576 52.5658 72.4315 51.9471 72.2306C51.3284 72.0217 50.7719 71.6702 50.2778 71.176ZM51.3927 68.7594L52.0435 69.4102C52.3368 69.7035 52.6763 69.9064 53.062 70.0189C53.4517 70.1274 53.8233 70.0049 54.1769 69.6513C54.5465 69.2817 54.6731 68.906 54.5566 68.5244C54.4441 68.1387 54.2412 67.7992 53.9479 67.5059L53.297 66.855C53.0037 66.5617 52.6663 66.3528 52.2846 66.2283C51.9029 66.1037 51.5212 66.2323 51.1395 66.614C50.782 66.9715 50.6635 67.3472 50.784 67.7409C50.9045 68.1346 51.1074 68.4741 51.3927 68.7594ZM60.4505 79.7577L56.5935 58.9302L58.1724 57.3513L62.0294 78.1788L60.4505 79.7577Z" fill="white"/>
<path d="M82.1925 58.0157L77.8173 62.3909L65.475 50.0487L69.8864 45.6373C71.1279 44.3958 72.4436 43.5742 73.8338 43.1725C75.2198 42.7667 76.614 42.7828 78.0161 43.2207C79.4223 43.6546 80.7662 44.5124 82.0478 45.794C83.3335 47.0796 84.1953 48.4276 84.6332 49.8378C85.0751 51.2439 85.0912 52.6461 84.6814 54.0442C84.2756 55.4384 83.446 56.7622 82.1925 58.0157ZM78.1909 57.5456L79.8482 55.8883C80.6196 55.1169 81.1318 54.3315 81.3849 53.532C81.638 52.7244 81.6079 51.8988 81.2945 51.0551C80.9812 50.2034 80.3644 49.3175 79.4444 48.3974C78.5324 47.4854 77.6525 46.8747 76.8048 46.5654C75.9611 46.252 75.1395 46.2219 74.34 46.475C73.5405 46.7281 72.755 47.2403 71.9836 48.0117L70.3203 49.675L78.1909 57.5456Z" fill="white"/>
<path d="M78.9397 40.8869L76.7882 38.7355L86.9248 28.5989L89.0762 30.7504L85.2976 34.529L95.4884 44.7198L92.9091 47.2991L82.7183 37.1083L78.9397 40.8869Z" fill="white"/>
<path d="M105.544 22.3224C106.889 23.6683 107.779 25.0684 108.213 26.5228C108.651 27.9732 108.681 29.3854 108.304 30.7594C107.926 32.1254 107.193 33.3528 106.104 34.4416C105.007 35.5384 103.774 36.2737 102.404 36.6473C101.034 37.0209 99.6236 36.9888 98.1732 36.5509C96.7228 36.113 95.3267 35.223 93.9848 33.8811C92.6389 32.5352 91.747 31.1371 91.309 29.6867C90.8711 28.2363 90.841 26.8282 91.2186 25.4622C91.5923 24.0921 92.3275 22.8587 93.4243 21.7619C94.5131 20.6731 95.7425 19.9419 97.1125 19.5683C98.4825 19.1866 99.8927 19.2147 101.343 19.6526C102.798 20.0865 104.198 20.9764 105.544 22.3224ZM102.898 24.968C102.026 24.0962 101.16 23.4915 100.301 23.154C99.4448 22.8125 98.6272 22.7221 97.8478 22.8828C97.0683 23.0435 96.3632 23.4393 95.7325 24.07C95.1017 24.7008 94.706 25.4059 94.5453 26.1853C94.3845 26.9648 94.4729 27.7844 94.8104 28.6441C95.1519 29.4999 95.7586 30.3637 96.6304 31.2355C97.5022 32.1073 98.366 32.714 99.2218 33.0555C100.082 33.393 100.901 33.4814 101.681 33.3207C102.46 33.16 103.165 32.7642 103.796 32.1335C104.427 31.5027 104.822 30.7976 104.983 30.0182C105.144 29.2387 105.053 28.4212 104.712 27.5654C104.374 26.7056 103.77 25.8398 102.898 24.968Z" fill="white"/>
<path d="M114.478 26.0437C114.08 26.4415 113.598 26.6423 113.031 26.6464C112.465 26.6423 111.983 26.4415 111.585 26.0437C111.191 25.65 110.995 25.1719 110.995 24.6094C110.999 24.0429 111.199 23.5608 111.597 23.1631C111.983 22.7774 112.461 22.5805 113.031 22.5725C113.602 22.5644 114.084 22.7573 114.478 23.151C114.743 23.4162 114.918 23.7275 115.002 24.0851C115.087 24.4346 115.087 24.7842 115.002 25.1337C114.914 25.4792 114.739 25.7826 114.478 26.0437Z" fill="white"/>
</g>
<defs>
<linearGradient id="paint0_linear_49_4836" x1="153.243" y1="-1.02151" x2="153.243" y2="93.1524" gradientUnits="userSpaceOnUse">
<stop stop-color="#690E19"/>
<stop offset="0.9935" stop-color="#BA192D"/>
</linearGradient>
<linearGradient id="paint1_linear_49_4836" x1="3.45204" y1="150.935" x2="35.9903" y2="150.935" gradientUnits="userSpaceOnUse">
<stop stop-color="#690E19"/>
<stop offset="0.9935" stop-color="#BA192D"/>
</linearGradient>
<clipPath id="clip0_49_4836">
<rect width="169" height="169" fill="white"/>
</clipPath>
</defs>
</svg>
