<svg width="81" height="132" viewBox="0 0 81 132" fill="none" xmlns="http://www.w3.org/2000/svg">
<g clip-path="url(#clip0_45_3045)">
<path d="M22.4 33.1H0V5.6C0 2.5 2.5 0 5.6 0H22.4V33.1Z" fill="url(#paint0_linear_45_3045)"/>
<path d="M74.1 0C77.4 0 80.1 2.7 80.1 6V128.1C80.1 130.6 77.7 132.3 75.4 131.6L47.5 119.5L16 131.7C13.7 132.3 11.4 130.6 11.4 128.2V25.5L11.5 6.1C11.5 2.8 8.8 0.1 5.5 0.1L74.1 0Z" fill="#F1213B"/>
<path d="M54.9999 96.2145L52.2979 96.2145C51.1877 95.628 50.1928 94.9158 49.313 94.078C48.4333 93.2401 47.5326 92.308 46.611 91.2817C45.836 90.4229 45.1971 89.7316 44.6944 89.208C44.1917 88.6634 43.7204 88.2654 43.2805 88.014C42.8197 87.7417 42.296 87.6056 41.7095 87.6056C40.2224 87.6056 39.4788 88.5796 39.4788 90.5276C39.4788 91.4283 39.5835 92.308 39.793 93.1668C40.0024 94.0047 40.2642 94.8006 40.5784 95.5547L35.5513 95.5547C35.2162 94.6959 34.9544 93.6905 34.7659 92.5384C34.5564 91.3864 34.4517 90.2239 34.4517 89.0509C34.4517 86.5373 35.0486 84.6626 36.2426 83.4268C37.4156 82.191 38.997 81.5731 40.9869 81.5731C41.9295 81.5731 42.7464 81.6883 43.4376 81.9187C44.1079 82.1281 44.7258 82.4633 45.2914 82.9241C45.8569 83.3849 46.4643 83.9819 47.1137 84.715C47.6792 85.3643 48.2448 86.0032 48.8103 86.6316C49.3759 87.26 49.931 87.7627 50.4756 88.1397L50.4756 81.3846L54.9999 81.3846L54.9999 96.2145Z" fill="white"/>
<path d="M55.3141 70.1219C55.3141 72.447 54.9162 74.3216 54.1202 75.746C53.3033 77.1494 52.1198 78.1758 50.5698 78.8251C49.0198 79.4744 47.1242 79.7991 44.8829 79.7991C42.6416 79.7991 40.746 79.4744 39.196 78.8251C37.646 78.1758 36.473 77.1494 35.677 75.746C34.8601 74.3216 34.4517 72.447 34.4517 70.1219C34.4517 66.6448 35.3523 64.1627 37.1537 62.6755C38.9342 61.1883 41.5106 60.4447 44.8829 60.4447C48.2343 60.4447 50.8107 61.1883 52.6121 62.6755C54.4135 64.1627 55.3141 66.6448 55.3141 70.1219ZM50.287 70.1219C50.287 68.7604 49.8367 67.8178 48.936 67.2942C48.0144 66.7496 46.6633 66.4773 44.8829 66.4773C43.0815 66.4773 41.7305 66.7496 40.8298 67.2942C39.9291 67.8178 39.4788 68.7604 39.4788 70.1219C39.4788 71.4834 39.9291 72.4365 40.8298 72.9811C41.7305 73.5047 43.0815 73.7666 44.8829 73.7666C46.6633 73.7666 48.0144 73.5047 48.936 72.9811C49.8367 72.4365 50.287 71.4834 50.287 70.1219Z" fill="white"/>
<path d="M44.1917 54.0975C44.1917 55.6476 43.7623 56.831 42.9035 57.6479C42.0237 58.4648 40.9031 58.8733 39.5416 58.8733C37.9706 58.8733 36.7348 58.4648 35.8341 57.6479C34.9125 56.831 34.4517 55.6476 34.4517 54.0975C34.4517 52.5266 34.9125 51.3326 35.8341 50.5157C36.7348 49.6988 37.9706 49.2904 39.5416 49.2904C40.9031 49.2904 42.0237 49.6988 42.9035 50.5157C43.7623 51.3326 44.1917 52.5266 44.1917 54.0975ZM54.9999 55.6057L34.7659 45.0487L34.7659 39.4561L54.9999 50.0444L54.9999 55.6057ZM41.1126 54.0975C41.1126 53.511 40.9659 53.0921 40.6727 52.8408C40.3585 52.5894 39.9396 52.4637 39.4159 52.4637C38.1591 52.4637 37.5308 53.0083 37.5308 54.0975C37.5308 54.6631 37.6774 55.0715 37.9706 55.3229C38.2639 55.5743 38.7456 55.6999 39.4159 55.6999C39.9396 55.6999 40.3585 55.5743 40.6727 55.3229C40.9659 55.0715 41.1126 54.6631 41.1126 54.0975ZM55.3141 40.9642C55.3141 42.5143 54.8847 43.6977 54.0259 44.5146C53.1462 45.3315 52.0256 45.74 50.6641 45.74C49.114 45.74 47.8887 45.3315 46.988 44.5146C46.0664 43.6977 45.6055 42.5143 45.6055 40.9642C45.6055 39.3933 46.0664 38.1993 46.988 37.3824C47.8887 36.5655 49.114 36.1571 50.6641 36.1571C52.0256 36.1571 53.1462 36.5655 54.0259 37.3824C54.8847 38.1993 55.3141 39.3933 55.3141 40.9642ZM52.2665 40.9642C52.2665 40.3777 52.1198 39.9588 51.8266 39.7075C51.5124 39.4561 51.0935 39.3304 50.5698 39.3304C49.313 39.3304 48.6846 39.875 48.6846 40.9642C48.6846 41.5298 48.8313 41.9382 49.1245 42.1896C49.4178 42.4409 49.8995 42.5666 50.5698 42.5666C51.0935 42.5666 51.5124 42.4409 51.8266 42.1896C52.1198 41.9382 52.2665 41.5298 52.2665 40.9642Z" fill="white"/>
</g>
<defs>
<linearGradient id="paint0_linear_45_3045" x1="11.1875" y1="-2.3326" x2="11.1875" y2="51.684" gradientUnits="userSpaceOnUse">
<stop stop-color="#690E19"/>
<stop offset="0.9935" stop-color="#BA192D"/>
</linearGradient>
<clipPath id="clip0_45_3045">
<rect width="80.1" height="131.9" fill="white"/>
</clipPath>
</defs>
</svg>
